<svg width="12" height="11" viewBox="0 0 12 11" fill="none" xmlns="http://www.w3.org/2000/svg">
<path fill-rule="evenodd" clip-rule="evenodd" d="M3.5 0.25C3.77614 0.25 4 0.473858 4 0.75V1.00425C4.29636 0.99999 4.61714 0.999994 4.96341 1L5 1H7L7.03659 1C7.38287 0.999994 7.70364 0.99999 8 1.00425V0.75C8 0.473858 8.22386 0.25 8.5 0.25C8.77614 0.25 9 0.473858 9 0.75V1.04858C9.09038 1.05682 9.17741 1.06645 9.26115 1.07771C9.86123 1.15842 10.3665 1.33109 10.7677 1.7326C11.169 2.13371 11.3416 2.63893 11.4223 3.23885C11.5 3.81684 11.5 4.55175 11.5 5.46342V5.5V6.5V6.53658C11.5 7.44825 11.5 8.18316 11.4223 8.76115C11.3416 9.36115 11.169 9.86641 10.7676 10.2676C10.3664 10.669 9.86115 10.8416 9.26115 10.9223C8.68316 11 7.94825 11 7.03658 11H7H5H4.96342C4.05175 11 3.31684 11 2.73885 10.9223C2.13893 10.8416 1.63371 10.669 1.2326 10.2677C0.831091 9.86654 0.658421 9.36122 0.577713 8.76115C0.499976 8.18316 0.499987 7.44826 0.5 6.5366V6.53659V6.5V5.5V5.46341V5.4634C0.499987 4.55174 0.499976 3.81684 0.577713 3.23885C0.658411 2.63885 0.831048 2.13359 1.23245 1.73245C1.63359 1.33105 2.13885 1.15841 2.73885 1.07771C2.82259 1.06645 2.90962 1.05682 3 1.04858V0.75C3 0.473858 3.22386 0.25 3.5 0.25ZM1.5 5.5C1.5 5.12465 1.50016 4.79385 1.50445 4.5H10.4956C10.4998 4.79385 10.5 5.12465 10.5 5.5V6.5C10.5 7.45689 10.4989 8.1243 10.4312 8.62785C10.3654 9.11703 10.2451 9.37596 10.0606 9.5603L10.0603 9.5606C9.87596 9.74509 9.61703 9.86542 9.12785 9.93121C8.6243 9.99894 7.95689 10 7 10H5C4.04311 10 3.3757 9.99894 2.87215 9.93121C2.38298 9.86542 2.12404 9.74509 1.93971 9.5606L1.9394 9.5603C1.75491 9.37596 1.63458 9.11703 1.56879 8.62785C1.50106 8.1243 1.5 7.45689 1.5 6.5V5.5ZM10.4312 3.37215C10.4368 3.41363 10.4419 3.45622 10.4466 3.5H1.55337C1.55808 3.45622 1.56321 3.41363 1.56879 3.37215C1.63458 2.88297 1.75491 2.62404 1.9394 2.4397L1.93971 2.4394C2.12404 2.25491 2.38298 2.13458 2.87215 2.06879C3.3757 2.00106 4.04311 2 5 2H7C7.95689 2 8.6243 2.00106 9.12785 2.06879C9.61703 2.13458 9.87596 2.25491 10.0603 2.4394L10.0606 2.4397C10.2451 2.62404 10.3654 2.88297 10.4312 3.37215ZM8.85355 8.35355C8.94732 8.25979 9 8.13261 9 8C9 7.86739 8.94732 7.74021 8.85355 7.64645C8.75979 7.55268 8.63261 7.5 8.5 7.5C8.36739 7.5 8.24022 7.55268 8.14645 7.64645C8.05268 7.74021 8 7.86739 8 8C8 8.13261 8.05268 8.25979 8.14645 8.35355C8.24022 8.44732 8.36739 8.5 8.5 8.5C8.63261 8.5 8.75979 8.44732 8.85355 8.35355ZM8.85355 6.35355C8.94732 6.25979 9 6.13261 9 6C9 5.86739 8.94732 5.74021 8.85355 5.64645C8.75979 5.55268 8.63261 5.5 8.5 5.5C8.36739 5.5 8.24022 5.55268 8.14645 5.64645C8.05268 5.74021 8 5.86739 8 6C8 6.13261 8.05268 6.25979 8.14645 6.35355C8.24022 6.44732 8.36739 6.5 8.5 6.5C8.63261 6.5 8.75979 6.44732 8.85355 6.35355ZM6.35355 8.35355C6.44732 8.25979 6.5 8.13261 6.5 8C6.5 7.86739 6.44732 7.74021 6.35355 7.64645C6.25979 7.55268 6.13261 7.5 6 7.5C5.86739 7.5 5.74022 7.55268 5.64645 7.64645C5.55268 7.74021 5.5 7.86739 5.5 8C5.5 8.13261 5.55268 8.25979 5.64645 8.35355C5.74022 8.44732 5.86739 8.5 6 8.5C6.13261 8.5 6.25979 8.44732 6.35355 8.35355ZM6.35355 6.35355C6.44732 6.25979 6.5 6.13261 6.5 6C6.5 5.86739 6.44732 5.74021 6.35355 5.64645C6.25979 5.55268 6.13261 5.5 6 5.5C5.86739 5.5 5.74022 5.55268 5.64645 5.64645C5.55268 5.74021 5.5 5.86739 5.5 6C5.5 6.13261 5.55268 6.25979 5.64645 6.35355C5.74022 6.44732 5.86739 6.5 6 6.5C6.13261 6.5 6.25979 6.44732 6.35355 6.35355ZM3.85355 8.35355C3.94732 8.25979 4 8.13261 4 8C4 7.86739 3.94732 7.74021 3.85355 7.64645C3.75979 7.55268 3.63261 7.5 3.5 7.5C3.36739 7.5 3.24022 7.55268 3.14645 7.64645C3.05268 7.74021 3 7.86739 3 8C3 8.13261 3.05268 8.25979 3.14645 8.35355C3.24022 8.44732 3.36739 8.5 3.5 8.5C3.63261 8.5 3.75979 8.44732 3.85355 8.35355ZM3.85355 6.35355C3.94732 6.25979 4 6.13261 4 6C4 5.86739 3.94732 5.74021 3.85355 5.64645C3.75979 5.55268 3.63261 5.5 3.5 5.5C3.36739 5.5 3.24022 5.55268 3.14645 5.64645C3.05268 5.74021 3 5.86739 3 6C3 6.13261 3.05268 6.25979 3.14645 6.35355C3.24022 6.44732 3.36739 6.5 3.5 6.5C3.63261 6.5 3.75979 6.44732 3.85355 6.35355Z" fill="#6185C1"/>
</svg>
