<svg width="72" height="72" viewBox="0 0 72 72" fill="none" xmlns="http://www.w3.org/2000/svg">
<g clip-path="url(#clip0_1809_27685)">
<path d="M55.9872 26.7937C55.6495 23.1974 50.384 23.349 50.2807 26.9521L49.7293 35.2538C49.3943 35.0549 49.0208 34.9293 48.6337 34.8852C48.2465 34.8411 47.8544 34.8796 47.4832 34.9981C47.112 35.1166 46.7701 35.3124 46.4801 35.5726C46.1901 35.8328 45.9586 36.1515 45.8009 36.5077L44.0366 40.6413C43.9467 40.8431 43.8096 41.0203 43.6368 41.158L39.86 44.21C39.5128 44.4893 39.2384 44.8487 39.0606 45.2572L36.6277 50.9341C36.5903 51.018 36.5701 51.1086 36.5683 51.2005C36.5665 51.2924 36.5831 51.3838 36.6171 51.4692C36.6512 51.5545 36.702 51.6323 36.7665 51.6977C36.8311 51.7632 36.9081 51.8151 36.993 51.8503L46.5383 55.9426C46.622 55.9789 46.712 55.9982 46.8032 55.9995C46.8943 56.0008 46.9849 55.9839 47.0695 55.95C47.1541 55.916 47.2311 55.8656 47.2961 55.8017C47.3611 55.7377 47.4128 55.6615 47.4481 55.5775L48.282 53.6347C48.7896 52.48 49.5701 51.4658 50.5563 50.6791L54.0023 46.5455C54.6747 46.0046 55.2063 45.3093 55.5519 44.5188C55.8975 43.7283 56.0468 42.8661 55.9872 42.0054V26.7937ZM53.0926 45.4777L52.9892 45.581L49.5432 49.7146C48.1067 50.9564 47.0367 52.5667 46.4487 54.3719L38.1784 50.8238L40.3356 45.7808C40.4259 45.5812 40.5602 45.4045 40.7284 45.2641L44.5121 42.2052C44.8551 41.929 45.1269 41.5746 45.3047 41.1718L47.0759 37.0382C47.2483 36.7546 47.5173 36.5427 47.8335 36.4415C48.1496 36.3403 48.4917 36.3566 48.7968 36.4873C49.1019 36.618 49.3496 36.8544 49.4943 37.1531C49.6391 37.4517 49.6711 37.7925 49.5846 38.1129L46.8278 44.4718C46.7556 44.6399 46.7532 44.8298 46.821 44.9997C46.8889 45.1696 47.0215 45.3056 47.1896 45.3778C47.3578 45.4499 47.5477 45.4524 47.7177 45.3846C47.8877 45.3167 48.0237 45.1842 48.0959 45.0161L50.8527 38.6503C51.0788 38.1221 51.1295 37.5353 50.9974 36.9762L51.6866 26.9866C51.7254 26.6367 51.8875 26.3121 52.144 26.0709C52.4004 25.8297 52.7344 25.6877 53.0861 25.6703C53.4378 25.6529 53.7842 25.7612 54.0632 25.9759C54.3422 26.1906 54.5356 26.4976 54.6088 26.8419V42.0536C54.6541 42.704 54.5403 43.3555 54.2774 43.9521C54.0144 44.5486 53.6101 45.0722 53.0995 45.4777H53.0926Z" fill="#3A67B1"/>
<path d="M35.3599 50.9341L32.927 45.2572C32.753 44.8483 32.4808 44.4886 32.1344 44.21L28.3438 41.1512C28.1716 41.0146 28.0365 40.8369 27.951 40.6345L26.1798 36.5008C26.0219 36.1456 25.7906 35.8278 25.5012 35.5682C25.2117 35.3087 24.8706 35.1133 24.5003 34.9949C24.1299 34.8765 23.7387 34.8377 23.3523 34.8812C22.9659 34.9246 22.593 35.0493 22.2582 35.247L21.7 26.9797C21.6578 26.2649 21.3482 25.5922 20.8327 25.0951C20.3172 24.5979 19.6335 24.3128 18.9174 24.2963C18.2013 24.2798 17.5052 24.5332 16.9673 25.0061C16.4295 25.4789 16.0892 26.1367 16.0141 26.8488V41.9572C15.9516 42.8182 16.0974 43.6815 16.4393 44.4742C16.7812 45.2669 17.3091 45.9655 17.9783 46.5111L21.4243 50.6447C22.4145 51.4292 23.1976 52.4439 23.7056 53.6003L24.5395 55.5431C24.6109 55.7111 24.7461 55.8439 24.9153 55.9123C25.0846 55.9808 25.2742 55.9793 25.4423 55.9082L34.9946 51.8504C35.0795 51.8151 35.1565 51.7632 35.221 51.6977C35.2856 51.6323 35.3364 51.5546 35.3704 51.4692C35.4044 51.3838 35.4211 51.2925 35.4192 51.2006C35.4174 51.1087 35.3972 51.018 35.3599 50.9341ZM22.4443 49.7353L18.9983 45.6017C18.4526 45.1831 18.0199 44.635 17.7395 44.007C17.4591 43.3791 17.3398 42.6911 17.3925 42.0054V26.897C17.4499 26.5377 17.6382 26.2124 17.9211 25.9835C18.2041 25.7546 18.5617 25.6384 18.9252 25.6572C19.2887 25.676 19.6324 25.8285 19.8902 26.0854C20.148 26.3422 20.3016 26.6853 20.3216 27.0486L21.0108 36.99C20.8835 37.5495 20.9341 38.1347 21.1555 38.6641L23.9123 45.0299C23.9845 45.198 24.1206 45.3305 24.2905 45.3984C24.4605 45.4662 24.6504 45.4637 24.8186 45.3916C24.9868 45.3194 25.1194 45.1834 25.1872 45.0135C25.2551 44.8436 25.2526 44.6537 25.1804 44.4856L22.4237 38.1267C22.3371 37.8063 22.3692 37.4655 22.5139 37.1669C22.6586 36.8682 22.9063 36.6318 23.2114 36.5011C23.5165 36.3704 23.8586 36.3541 24.1748 36.4553C24.4909 36.5565 24.7599 36.7684 24.9323 37.052L26.7036 41.1856C26.8773 41.5813 27.1417 41.9306 27.4755 42.2052L31.266 45.2641C31.4383 45.4007 31.5734 45.5784 31.6589 45.7808L33.823 50.8238L25.5526 54.3719C24.9615 52.5706 23.8862 50.9666 22.4443 49.7353Z" fill="#3A67B1"/>
<path d="M35.1423 20.8621C34.1355 19.766 32.7729 19.1507 31.3524 19.1507C29.9319 19.1507 28.5692 19.766 27.5625 20.8621C26.5616 21.9654 26 23.4566 26 25.0109C26 26.5651 26.5616 28.0564 27.5625 29.1597L35.443 37.7789C35.5065 37.8489 35.5821 37.9045 35.6654 37.9425C35.7486 37.9805 35.838 38 35.9283 38C36.0185 38 36.1078 37.9805 36.1911 37.9425C36.2744 37.9045 36.35 37.8489 36.4135 37.7789L44.294 29.1597C44.8206 28.6226 45.243 27.9749 45.536 27.2555C45.8289 26.536 45.9865 25.7593 45.9992 24.9718C46.0119 24.1843 45.8796 23.402 45.61 22.6717C45.3405 21.9413 44.9392 21.2778 44.4303 20.7206C43.9213 20.1634 43.315 19.724 42.6475 19.4286C41.9799 19.1331 41.2649 18.9876 40.5448 19.0008C39.8248 19.014 39.1146 19.1856 38.4564 19.5053C37.7984 19.8251 37.2058 20.2865 36.7143 20.8621C36.6113 20.9755 36.4888 21.0655 36.3539 21.1271C36.2191 21.1885 36.0744 21.2201 35.9283 21.2201C35.7821 21.2201 35.6374 21.1885 35.5025 21.1271C35.3676 21.0655 35.2452 20.9755 35.1423 20.8621ZM37.678 21.9236C38.0486 21.5181 38.4886 21.1964 38.973 20.9769C39.4573 20.7575 39.9764 20.6445 40.5007 20.6445C41.025 20.6445 41.5441 20.7575 42.0284 20.9769C42.5127 21.1964 42.9528 21.5181 43.3235 21.9236C43.6958 22.328 43.9914 22.8089 44.1931 23.3388C44.3948 23.8687 44.4986 24.4369 44.4986 25.0109C44.4986 25.5849 44.3948 26.1531 44.1931 26.683C43.9914 27.2129 43.6958 27.6938 43.3235 28.0982L35.9283 36.1941L28.5262 28.0982C27.7807 27.2776 27.3624 26.1677 27.3624 25.0109C27.3624 23.8541 27.7807 22.7442 28.5262 21.9236C29.2759 21.1042 30.2924 20.6438 31.3524 20.6438C32.4123 20.6438 33.4288 21.1042 34.1786 21.9236C34.6493 22.417 35.2762 22.6925 35.9283 22.6925C36.5803 22.6925 37.2072 22.417 37.678 21.9236Z" fill="#3A67B1"/>
</g>
<rect x="0.5" y="0.5" width="71" height="71" rx="35.5" stroke="#D8E1EF"/>
<defs>
<clipPath id="clip0_1809_27685">
<rect width="40" height="40" fill="white" transform="translate(16 16)"/>
</clipPath>
</defs>
</svg>
