<?xml version="1.0" encoding="UTF-8" standalone="no"?>
<svg xmlns="http://www.w3.org/2000/svg" viewBox="0 0 256 256">
  <g transform="translate(118.86606 8.72833312) scale(.5273)">
    <linearGradient id="a" x1="128" x2="128" y1="244.43" y2="11.573" gradientUnits="userSpaceOnUse">
      <stop offset=".005615" stop-color="#ed0000"/>
      <stop offset=".54494" stop-color="#8d0000"/>
      <stop offset="1" stop-color="#bd0000"/>
    </linearGradient>
    <path fill="url(#a)" d="M4.9805 128c0 67.832 55.188 123.02 123.02 123.02 67.831 0 123.02-55.189 123.02-123.02 0-67.833-55.19-123.02-123.02-123.02-67.832 0-123.02 55.188-123.02 123.02z"/>
    <linearGradient id="b" x1="128" x2="128" y1="244.41" y2="11.546" gradientUnits="userSpaceOnUse">
      <stop offset=".005615" stop-color="#ff4242"/>
      <stop offset=".57303" stop-color="#ff9494"/>
      <stop offset="1" stop-color="#ffdcdc"/>
    </linearGradient>
    <path fill="url(#b)" d="M12.38 128c0 63.754 51.868 115.62 115.62 115.62S243.62 191.753 243.62 128c0-63.754-51.865-115.62-115.62-115.62C64.248 12.378 12.38 64.246 12.38 128z"/>
    <linearGradient id="c" x1="128" x2="128" y1="239.71" y2="16.285" gradientUnits="userSpaceOnUse">
      <stop offset="0" stop-color="#FFF"/>
      <stop offset=".5" stop-color="red"/>
      <stop offset="1" stop-color="#ffc9c9"/>
    </linearGradient>
    <path fill="url(#c)" d="M16.285 128c0 61.604 50.119 111.71 111.72 111.71 61.602 0 111.72-50.108 111.72-111.71 0-61.598-50.115-111.72-111.72-111.72-61.596.005-111.72 50.122-111.72 111.72z"/>
    <path fill="#FFF" d="M128 30.242c-56.103 0-101.75 45.638-101.75 101.75 0 56.103 45.648 101.74 101.75 101.74 56.104 0 101.75-45.637 101.75-101.74 0-56.109-45.644-101.75-101.75-101.75z" opacity=".8"/>
    <path fill="#8d0000" d="M26.251 128c0 56.106 45.648 101.74 101.75 101.74 56.11 0 101.75-45.63 101.75-101.74 0-56.103-45.64-101.75-101.75-101.75C71.9 26.25 26.251 71.895 26.251 128z"/>
    <radialGradient id="d" cx="59.616" cy="234.04" r="69.963" gradientTransform="translate(43.4252 -204.0338) scale(1.4187)" gradientUnits="userSpaceOnUse">
      <stop offset=".60112" stop-color="#FFF"/>
      <stop offset=".8764" stop-color="#eaeaf0"/>
      <stop offset=".91417" stop-color="#e6e6ed"/>
      <stop offset=".94998" stop-color="#dbdbe5"/>
      <stop offset=".98491" stop-color="#c8c8d7"/>
      <stop offset="1" stop-color="#bdbdcf"/>
    </radialGradient>
    <path fill="url(#d)" d="M28.743 128c0 54.729 44.526 99.253 99.259 99.253 54.731 0 99.26-44.524 99.26-99.253s-44.528-99.257-99.26-99.257S28.743 73.271 28.743 128z"/>
    <path fill="#711" d="M36.957 124.75c-1.1045 0-2 .89551-2 2v2.4868c0 1.1045.89551 2 2 2h17.441c1.1045 0 2-.8955 2-2V126.75c0-1.1045-.89551-2-2-2H36.957z"/>
    <path fill="#a00000" d="M36.957 126.75h17.441v2.4868H36.957z"/>
    <path fill="#711" d="M201.06 124.75c-1.1045 0-2 .89551-2 2v2.4868c0 1.1045.89551 2 2 2h17.448c1.1045 0 2-.8955 2-2V126.75c0-1.1045-.89551-2-2-2H201.06z"/>
    <path fill="#a00000" d="M201.06 126.75h17.448v2.4868H201.06z"/>
    <path fill="#711" d="M126.76 199.06c-1.1045 0-2 .89551-2 2v17.441c0 1.1045.89551 2 2 2h2.4922c1.1045 0 2-.89551 2-2V201.06c0-1.1045-.89551-2-2-2H126.76z"/>
    <path fill="#a00000" d="M126.76 201.06h2.4922v17.441H126.76z"/>
    <path fill="#711" d="M126.76 34.954c-1.1045 0-2 .89551-2 2v17.441c0 1.1045.89551 2 2 2h2.4922c1.1045 0 2-.89551 2-2V36.954c0-1.1045-.89551-2-2-2H126.76z"/>
    <path fill="#a00000" d="M126.76 36.954h2.4922v17.441H126.76z"/>
    <linearGradient id="e" x1="117.74" x2="137.88" y1="123.59" y2="123.59" gradientUnits="userSpaceOnUse">
      <stop offset="0" stop-color="#FFF"/>
      <stop offset="1" stop-color="#585868"/>
    </linearGradient>
    <path fill="url(#e)" d="M135.74 125.43c-1.081-3.2427-4.1377-5.5898-7.7392-5.5898-4.2285 0-7.7139 3.2354-8.1172 7.3623 5.335.38477 10.731-.0234 15.856-1.7725z"/>
  </g>
  <g fill="none" stroke-linecap="round" stroke-linejoin="round" stroke-width="7.61007404">
    <path stroke="#e0e0e0" stroke-width="8.53332822" d="m155.94176522 42.52532244 30.06575007 35.1982121"/>
    <path stroke="#bfbfbf" stroke-width="8.53332822" d="m177.56733438 32.20799698 8.43907838 45.51574198"/>
    <path stroke="gray" stroke-width="8.53332822" d="m201.4541996 34.08685731-15.44888937 43.63708607"/>
    <path stroke="#000" stroke-width="8.53332822" d="m152.72121329 65.93563642 33.2931216 11.78777413 35.19710957-30.06554566"/>
  </g>
</svg>