<svg width="44" height="24" viewBox="0 0 95 45" fill="none" xmlns="http://www.w3.org/2000/svg">
<path fill-rule="evenodd" clip-rule="evenodd" d="M86.9889 23.6128H4.10113C4.10113 24.5531 3.29531 25.9299 2.31157 26.6738C1.2184 27.4991 1.02002 28.0385 1.80027 28.0578C3.67675 28.1056 3.42314 33.1786 1.54461 33.1786C-1.14995 33.1786 -0.0987135 35.9944 2.99671 37.068C4.94682 37.7447 6.0993 38.9262 6.32018 40.4751C6.4209 41.1833 6.47072 41.6953 6.73843 42.0395C7.44924 42.9532 9.69617 42.6835 18.5107 41.7624C24.5154 41.1345 25.4644 41.2861 27.2079 43.1484C29.0333 45.0972 30.0692 45.2112 42.454 44.8184C49.7625 44.5874 56.8931 44.1722 58.2992 43.8964C59.7053 43.6206 64.307 42.8136 68.5253 42.1033C75.2305 40.9737 76.2357 40.5229 76.5221 38.5212C76.701 37.2614 77.377 36.2315 78.0232 36.2315C78.6685 36.2315 80.1329 35.1691 81.2751 33.8716C82.4184 32.5731 84.1609 31.2125 85.1488 30.8482C86.337 30.4096 86.8882 29.2281 86.7788 27.3567C86.7141 26.257 86.8016 24.9339 86.9889 23.6128Z" fill="#FCD304"/>
<path d="M18.7765 1.98074C15.5052 3.67308 14.3824 4.93394 13.8731 7.48313C13.5091 9.30267 12.7524 10.7905 12.191 10.7905C11.6296 10.7905 11.3054 11.5913 11.47 12.5713C11.6694 13.7518 11.1561 14.3023 9.94634 14.2057C8.0402 14.051 4.10113 20.3909 4.10113 23.6128H86.9889C87.3996 20.7157 88.2904 17.8276 89.1093 17.3237C89.5991 17.0225 90 15.6589 90 14.2922C90 12.1093 89.5347 11.802 86.1652 11.7552C82.4031 11.7023 82.3734 11.6717 84.6006 10.1249C86.5446 8.77452 86.6653 8.34405 85.4402 7.12492C84.6538 6.34235 83.0667 5.70226 81.9132 5.70226C80.7597 5.70226 77.966 4.9665 75.706 4.06589C73.4461 3.16629 70.9499 2.67681 70.1584 2.97905C69.3669 3.28129 65.57 2.84065 61.7198 1.99906C57.7603 1.13406 47.8359 0.320968 38.8697 0.127616C24.2516 -0.186836 22.689 -0.0423305 18.7765 1.98074Z" fill="#0262C2"/>
</svg>
