<svg  viewBox="0 0 44 24" fill="none" xmlns="http://www.w3.org/2000/svg">
<path fill-rule="evenodd" clip-rule="evenodd" d="M86.9889 24.1128H4.10113C4.10113 25.0531 3.29531 26.4299 2.31157 27.1738C1.2184 27.9991 1.02002 28.5385 1.80027 28.5578C3.67675 28.6056 3.42314 33.6786 1.54461 33.6786C-1.14995 33.6786 -0.0987135 36.4944 2.99671 37.568C4.94682 38.2447 6.0993 39.4262 6.32018 40.9751C6.4209 41.6833 6.47072 42.1953 6.73843 42.5395C7.44924 43.4532 9.69617 43.1835 18.5107 42.2624C24.5154 41.6345 25.4644 41.7861 27.2079 43.6484C29.0333 45.5972 30.0692 45.7112 42.454 45.3184C49.7625 45.0874 56.8931 44.6722 58.2992 44.3964C59.7053 44.1206 64.307 43.3136 68.5253 42.6033C75.2305 41.4737 76.2357 41.0229 76.5221 39.0212C76.701 37.7614 77.377 36.7315 78.0232 36.7315C78.6685 36.7315 80.1329 35.6691 81.2751 34.3716C82.4184 33.0731 84.1609 31.7125 85.1488 31.3482C86.337 30.9096 86.8882 29.7281 86.7788 27.8567C86.7141 26.757 86.8016 25.4339 86.9889 24.1128Z" fill="#FCD304"/>
<path d="M18.7765 2.48074C15.5052 4.17308 14.3824 5.43394 13.8731 7.98313C13.5091 9.80267 12.7524 11.2905 12.191 11.2905C11.6296 11.2905 11.3054 12.0913 11.47 13.0713C11.6694 14.2518 11.1561 14.8023 9.94634 14.7057C8.0402 14.551 4.10113 20.8909 4.10113 24.1128H86.9889C87.3996 21.2157 88.2904 18.3276 89.1093 17.8237C89.5991 17.5225 90 16.1589 90 14.7922C90 12.6093 89.5347 12.302 86.1652 12.2552C82.4031 12.2023 82.3734 12.1717 84.6006 10.6249C86.5446 9.27452 86.6653 8.84405 85.4402 7.62492C84.6538 6.84235 83.0667 6.20226 81.9132 6.20226C80.7597 6.20226 77.966 5.4665 75.706 4.56589C73.4461 3.66629 70.9499 3.17681 70.1584 3.47905C69.3669 3.78129 65.57 3.34065 61.7198 2.49906C57.7603 1.63406 47.8359 0.820968 38.8697 0.627616C24.2516 0.313164 22.689 0.45767 18.7765 2.48074Z" fill="#0262C2"/>
</svg>
