<svg viewBox="0 0 36 36" fill="none"><path stroke="#fff" stroke-linejoin="round" d="M12.182 16.333c-.978 0-1.182.192-1.182 1.111v1.667c0 .92.204 1.111 1.182 1.111h2.364v6.667c0 .92.204 1.111 1.181 1.111h2.364c.978 0 1.182-.192 1.182-1.111v-6.667h2.654c.741 0 .932-.135 1.136-.806l.507-1.666c.349-1.149.133-1.417-1.137-1.417h-3.16v-2.777c0-.614.529-1.112 1.181-1.112h3.364c.978 0 1.182-.191 1.182-1.11V9.11C25 8.191 24.796 8 23.818 8h-3.364c-3.263 0-5.909 2.487-5.909 5.556v2.777h-2.363Z" clip-rule="evenodd"/><rect width="35" height="35" x=".5" y=".5" stroke="#fff" rx="17.5"/></svg>