<svg viewBox="0 0 36 36" fill="none"><rect width="35" height="35" x=".5" y=".5" fill="#0A0F29" rx="17.5"/><path stroke="#fff" stroke-linejoin="round" d="M8.5 18c0-4.5 0-6.7 1.4-8.1 1.4-1.4 3.6-1.4 8.1-1.4s6.7 0 8.1 1.4c1.4 1.4 1.4 3.6 1.4 8.1s0 6.7-1.4 8.1c-1.4 1.4-3.6 1.4-8.1 1.4s-6.7 0-8.1-1.4c-1.4-1.4-1.4-3.6-1.4-8.1Z"/><path stroke="#fff" d="M22.5 18a4.5 4.5 0 1 1-9 0 4.5 4.5 0 0 1 9 0Z"/><path stroke="#fff" stroke-linecap="round" stroke-linejoin="round" d="M23.5 12.5h0"/><rect width="35" height="35" x=".5" y=".5" stroke="#fff" rx="17.5"/></svg>