<svg width="72" height="72" viewBox="0 0 72 72" fill="none" xmlns="http://www.w3.org/2000/svg">
<path fill-rule="evenodd" clip-rule="evenodd" d="M42.9576 43.4083C42.4108 43.4083 41.9422 43.2523 41.5516 42.9404C41.3173 42.7064 41.1611 42.4725 41.083 42.2386C40.7706 42.4725 40.38 42.6285 39.9114 42.6285C39.3646 42.7064 38.896 42.4725 38.4273 42.1606C38.193 41.9266 38.0368 41.6147 37.8806 41.3028C37.1776 41.7707 36.2403 41.6927 35.5373 41.1468C35.2249 40.8349 34.9906 40.523 34.9124 40.211C34.7562 40.289 34.5219 40.289 34.2876 40.289C33.7408 40.367 33.2722 40.211 32.8035 39.8211C32.0224 39.1193 31.8662 37.7936 32.6473 36.9358L39.9895 28.5918L37.3338 28.7477C36.8652 28.8257 36.3184 28.5918 35.9279 28.2798C35.4592 27.8899 35.2249 27.422 35.2249 26.8762C35.1468 25.8624 35.7716 25.0046 36.7089 24.7707C40.1457 24.0688 42.8795 23.133 46.3943 21.4175C46.5506 21.3395 46.7068 21.3395 46.863 21.4175C47.0192 21.4954 47.1754 21.6514 47.1754 21.8074C47.2535 21.8853 47.2535 22.0413 47.4097 22.1193L52.9554 27.0321C53.1116 27.1881 53.2679 27.1881 53.4241 27.1881C53.6584 27.1881 53.8146 27.2661 53.9708 27.3441C54.0489 27.5 54.127 27.656 54.127 27.8899C54.0489 28.2019 54.0489 28.5138 53.9708 28.7477C53.5022 31.633 53.346 32.5688 50.456 35.8441L44.4416 42.7844C44.0511 43.1743 43.5043 43.4083 42.9576 43.4083ZM42.2546 40.9129C41.9422 41.2248 42.0203 41.7707 42.3327 42.0826C42.7233 42.3945 43.27 42.3165 43.5825 42.0046L49.5968 35.0642C52.2525 32.1009 52.3306 31.3991 52.7992 28.5918C52.7992 28.5138 52.7992 28.3578 52.8773 28.2798C52.643 28.2019 52.4087 28.1239 52.1743 27.9679L46.6287 23.0551C46.4725 22.9771 46.3943 22.8211 46.3162 22.7431C42.9576 24.3028 40.3019 25.2386 36.9433 25.9404C36.6308 26.0184 36.3965 26.4083 36.3965 26.7982C36.3965 27.0321 36.4746 27.1881 36.7089 27.3441C36.8652 27.5 37.0995 27.578 37.2557 27.578L41.3173 27.3441C41.5516 27.2661 41.786 27.422 41.8641 27.656C42.0203 27.8899 41.9422 28.1239 41.786 28.2798L33.5065 37.7156C33.1941 38.1055 33.2722 38.6514 33.5846 38.9633C33.9752 39.2752 34.5219 39.1973 34.8343 38.8853L38.896 34.1285C39.1303 33.8945 39.5208 33.8945 39.7552 34.1285C39.9895 34.2844 40.0676 34.6743 39.8333 34.9083L36.2403 39.0413C35.9279 39.3532 35.9279 39.8991 36.3184 40.211C36.6308 40.523 37.1776 40.523 37.49 40.133L41.083 36.078C41.3173 35.8441 41.7079 35.7661 41.9422 36C42.1765 36.234 42.1765 36.6239 41.9422 36.8578L39.1303 40.0551C38.8179 40.445 38.896 40.9129 39.2084 41.2248C39.4427 41.3808 39.5989 41.4587 39.8333 41.4587C40.0676 41.4587 40.3019 41.3808 40.4581 41.1468L43.0357 38.1835C43.1919 38.0275 43.27 37.9496 43.27 37.9496C43.5043 37.7156 43.8168 37.6376 44.1292 37.8716C44.3635 38.1055 44.3635 38.4954 44.1292 38.7294L43.8949 39.0413C43.4262 39.5872 42.3327 40.7569 42.2546 40.9129Z" fill="#3A67B1"/>
<path fill-rule="evenodd" clip-rule="evenodd" d="M39.3627 35.1423C39.2065 35.1423 39.1284 35.0643 38.9721 34.9863C38.7378 34.7523 38.7378 34.3624 38.894 34.1285L40.3781 32.4909C40.6124 32.2569 41.003 32.2569 41.2373 32.4129C41.4716 32.6468 41.4716 33.0367 41.2373 33.2707L39.8313 34.9083C39.6751 35.0643 39.5189 35.1423 39.3627 35.1423Z" fill="#3A67B1"/>
<path fill-rule="evenodd" clip-rule="evenodd" d="M41.5515 37.0138C41.3953 37.0138 41.2391 37.0138 41.161 36.8579C40.9267 36.7019 40.8487 36.3119 41.083 36.078L42.5669 34.3625C42.8013 34.1285 43.1137 34.1285 43.348 34.3625C43.6605 34.5184 43.6605 34.9083 43.4261 35.1423L41.9422 36.8578C41.8641 36.9358 41.7078 37.0138 41.5515 37.0138Z" fill="#3A67B1"/>
<path fill-rule="evenodd" clip-rule="evenodd" d="M43.739 38.8852C43.5828 38.8852 43.4266 38.8852 43.3485 38.8072C43.1142 38.5733 43.0357 38.1835 43.27 37.9496L44.7544 36.3118C44.9107 35.9999 45.3012 35.9999 45.5355 36.2338C45.7698 36.4677 45.848 36.7797 45.6136 37.0916L44.1292 38.7294C44.0511 38.8853 43.8953 38.8852 43.739 38.8852Z" fill="#3A67B1"/>
<path fill-rule="evenodd" clip-rule="evenodd" d="M53.3447 28.3578C52.9541 28.3578 52.5636 28.2018 52.173 27.9679L46.6273 23.055C45.8463 22.4312 45.7682 21.2615 46.4711 20.5596L47.2522 19.6239C47.6428 19.2339 48.1114 19 48.5801 19C49.0487 19 49.4392 19.156 49.7517 19.3899L55.3755 24.3028C55.766 24.6147 55.9222 25.0826 56.0003 25.5505C56.0003 26.0183 55.8441 26.4862 55.5317 26.7982L54.7506 27.7339C54.3601 28.1239 53.8914 28.3578 53.3447 28.3578ZM48.5801 20.1697C48.4238 20.1697 48.2676 20.2477 48.1895 20.3257L47.3303 21.3394C47.096 21.5734 47.1741 21.9633 47.4084 22.1193L52.9541 27.0321C53.1103 27.1101 53.2665 27.1881 53.3447 27.1881C53.579 27.1881 53.7352 27.1101 53.8133 26.9541L54.6725 26.0183C54.7506 25.9404 54.8287 25.7844 54.8287 25.6284C54.8287 25.4725 54.7506 25.3165 54.5944 25.1606L48.9706 20.3257C48.8925 20.2477 48.7363 20.1697 48.5801 20.1697Z" fill="#3A67B1"/>
<path fill-rule="evenodd" clip-rule="evenodd" d="M32.7247 52.9995C32.4904 52.9995 32.2561 52.9995 32.0998 52.9215C28.8193 51.6738 26.0074 51.05 22.102 50.5821C21.9458 50.5041 21.7896 50.4261 21.7115 50.2702C21.6333 50.1142 21.5552 49.9582 21.6333 49.8023C21.7115 49.6463 21.7115 49.4903 21.6333 49.4124L19.6025 42.238C19.5244 42.0821 19.4463 41.9261 19.2901 41.8481C19.1339 41.7702 18.9777 41.6142 18.9777 41.4582C18.8996 41.3023 18.9777 41.0683 19.0558 40.9903C19.2901 40.6784 19.5244 40.4445 19.6806 40.2885C21.6333 38.105 22.2582 37.4032 26.476 36.1555L35.9271 33.4261C36.2396 33.3481 36.552 33.5041 36.6301 33.816C36.7863 34.128 36.552 34.4399 36.2396 34.5179L26.7885 37.3252C22.9612 38.4169 22.4144 38.9628 20.5398 41.0683C20.5398 41.1463 20.4617 41.2243 20.3836 41.3023C20.5398 41.4582 20.6179 41.6922 20.696 41.9261L22.805 49.0225C22.805 49.1784 22.8831 49.3344 22.8831 49.4903C26.5542 49.9582 29.2879 50.5821 32.4904 51.8298C32.8028 51.9078 33.2715 51.7518 33.4277 51.3619C33.5839 51.2059 33.5839 50.972 33.5058 50.738C33.4277 50.5041 33.2715 50.3481 33.1152 50.1922L29.6004 48.3206C29.366 48.1647 29.2098 47.9307 29.2879 47.6968C29.2879 47.4628 29.4442 47.3069 29.6785 47.2289L41.7852 43.7197C42.0977 43.5637 42.4101 43.2518 42.332 42.8619C42.332 42.55 42.6444 42.238 42.9569 42.238C43.2693 42.238 43.5036 42.55 43.5817 42.8619C43.5817 43.7197 42.9569 44.5775 42.0977 44.8114L31.3969 47.9307L33.662 49.1784C34.1306 49.4903 34.5212 49.8802 34.6774 50.4261C34.8336 50.894 34.7555 51.4399 34.4431 51.9858C34.1306 52.6096 33.4277 52.9995 32.7247 52.9995Z" fill="#3A67B1"/>
<path fill-rule="evenodd" clip-rule="evenodd" d="M32.9592 44.4214C32.7249 44.4214 32.4906 44.2654 32.4125 44.0315C32.3344 43.7196 32.4906 43.4076 32.803 43.3297L39.286 41.5361C39.5984 41.4581 39.9109 41.6141 39.989 41.926C40.0671 42.2379 39.9109 42.5498 39.5984 42.6278L33.1155 44.4214C33.1155 44.4214 33.0373 44.4214 32.9592 44.4214Z" fill="#3A67B1"/>
<path fill-rule="evenodd" clip-rule="evenodd" d="M32.178 41.6926C31.9437 41.6926 31.7093 41.5366 31.6312 41.3027C31.5531 40.9908 31.7093 40.6009 32.0218 40.5229L35.3804 39.5871C35.6929 39.5091 36.0053 39.6651 36.0834 39.977C36.1615 40.2889 36.0053 40.6009 35.6929 40.7568L32.3342 41.6926C32.2561 41.6926 32.2561 41.6926 32.178 41.6926Z" fill="#3A67B1"/>
<path fill-rule="evenodd" clip-rule="evenodd" d="M30.6155 39.1192C30.3812 39.1192 30.1468 38.9632 30.0687 38.7293C29.9906 38.4174 30.1468 38.0275 30.4593 37.9495L32.5682 37.3256C32.8806 37.2476 33.2712 37.4036 33.3493 37.7155C33.4274 38.0275 33.2712 38.4174 32.9587 38.4954L30.8498 39.1192C30.7717 39.1192 30.6936 39.1192 30.6155 39.1192Z" fill="#3A67B1"/>
<path fill-rule="evenodd" clip-rule="evenodd" d="M19.915 51.6741C19.1339 51.6741 18.431 51.1282 18.1966 50.4264L16.0877 43.2521C15.7753 42.3163 16.322 41.3805 17.3374 41.0686L18.5091 40.6787C18.6653 40.6787 18.8215 40.6787 18.9777 40.6787C19.7588 40.6787 20.4617 41.1463 20.696 41.9261L22.805 49.0225C23.1174 49.9582 22.5707 50.9723 21.5553 51.2842L20.3837 51.5961C20.2274 51.6741 20.0712 51.6741 19.915 51.6741ZM18.9777 41.8484C18.9777 41.8484 18.8996 41.8484 18.8215 41.8484L17.6499 42.1604C17.3374 42.3163 17.1031 42.6282 17.2593 42.9402L19.2901 50.0365C19.3683 50.3484 19.6026 50.5044 19.915 50.5044C19.915 50.5044 19.9931 50.5044 20.0712 50.5044L21.2429 50.1145C21.5553 50.0365 21.7896 49.7243 21.6333 49.4124L19.6025 42.238C19.5244 42.0041 19.2901 41.8484 18.9777 41.8484Z" fill="#3A67B1"/>
<rect x="0.5" y="0.5" width="71" height="71" rx="35.5" stroke="#D8E1EF"/>
</svg>
