<svg width="72" height="72" viewBox="0 0 72 72" fill="none" xmlns="http://www.w3.org/2000/svg">
<path d="M46.5156 53.1279H47.0156V52.1279H46.5156V53.1279ZM22.3991 31.2978H22.8991C22.8991 31.0216 22.6752 30.7978 22.3991 30.7978V31.2978ZM16 31.2978L15.7034 30.8952C15.5295 31.0234 15.4576 31.2487 15.525 31.4539C15.5924 31.6591 15.784 31.7978 16 31.7978V31.2978ZM35.6238 16.8359L35.331 16.4305L35.3271 16.4334L35.6238 16.8359ZM36.8822 16.8359L36.5785 17.2331L36.5858 17.2386L36.8822 16.8359ZM56.5273 31.2978V31.7978C56.7434 31.7978 56.935 31.659 57.0024 31.4538C57.0698 31.2485 56.9977 31.0232 56.8238 30.8951L56.5273 31.2978ZM50.1283 31.2978V30.7978C49.8521 30.7978 49.6283 31.0216 49.6283 31.2978H50.1283ZM44.7957 52.1279H44.2957V53.1279H44.7957V52.1279ZM43.5996 15V14.5H43.0996V15H43.5996ZM48.5996 15H49.0996V14.5H48.5996V15ZM46.5156 52.1279H23.4656V53.1279H46.5156V52.1279ZM23.4656 52.1279C23.1445 52.1279 22.8991 51.8825 22.8991 51.5614H21.8991C21.8991 52.4348 22.5922 53.1279 23.4656 53.1279V52.1279ZM22.8991 51.5614V31.2978H21.8991V51.5614H22.8991ZM22.3991 30.7978H16V31.7978H22.3991V30.7978ZM16.2966 31.7003L35.9204 17.2384L35.3271 16.4334L15.7034 30.8952L16.2966 31.7003ZM35.9165 17.2412C36.1309 17.0864 36.4001 17.0966 36.5785 17.2331L37.186 16.4387C36.6392 16.0206 35.8845 16.0308 35.331 16.4306L35.9165 17.2412ZM36.5858 17.2386L56.2309 31.7004L56.8238 30.8951L37.1787 16.4332L36.5858 17.2386ZM56.5273 30.7978H50.1283V31.7978H56.5273V30.7978ZM49.6283 31.2978V51.5614H50.6283V31.2978H49.6283ZM49.6283 51.5614C49.6283 51.876 49.3681 52.1279 49.0618 52.1279V53.1279C49.9073 53.1279 50.6283 52.4413 50.6283 51.5614H49.6283ZM49.0618 52.1279H44.7957V53.1279H49.0618V52.1279ZM44.0996 22V15H43.0996V22H44.0996ZM43.5996 15.5H48.5996V14.5H43.5996V15.5ZM48.0996 15V25.5H49.0996V15H48.0996Z" fill="#3A67B1"/>
<path d="M35.7828 33.4323C34.9918 32.5892 33.9211 32.1159 32.8051 32.1159C31.689 32.1159 30.6183 32.5892 29.8273 33.4323C29.0409 34.2811 28.5996 35.4282 28.5996 36.6238C28.5996 37.8193 29.0409 38.9664 29.8273 39.8152L36.0191 46.4453C36.069 46.4992 36.1284 46.542 36.1938 46.5712C36.2593 46.6004 36.3294 46.6154 36.4004 46.6154C36.4713 46.6154 36.5415 46.6004 36.6069 46.5712C36.6723 46.542 36.7317 46.4992 36.7817 46.4453L42.9735 39.8152C43.3873 39.402 43.7191 38.9038 43.9493 38.3504C44.1795 37.7969 44.3032 37.1994 44.3132 36.5937C44.3232 35.9879 44.2193 35.3862 44.0075 34.8244C43.7957 34.2626 43.4804 33.7521 43.0806 33.3236C42.6806 32.8949 42.2043 32.5569 41.6798 32.3297C41.1552 32.1024 40.5934 31.9905 40.0277 32.0006C39.4619 32.0108 38.9039 32.1428 38.3868 32.3887C37.8698 32.6347 37.4042 32.9896 37.018 33.4323C36.9371 33.5196 36.8408 33.5889 36.7348 33.6362C36.6289 33.6835 36.5152 33.7078 36.4004 33.7078C36.2855 33.7078 36.1719 33.6835 36.0659 33.6362C35.9599 33.5889 35.8637 33.5196 35.7828 33.4323ZM37.7752 34.2489C38.0664 33.937 38.4121 33.6896 38.7927 33.5207C39.1732 33.3519 39.5811 33.265 39.993 33.265C40.4049 33.265 40.8128 33.3519 41.1934 33.5207C41.5739 33.6896 41.9196 33.937 42.2109 34.2489C42.5035 34.56 42.7357 34.93 42.8942 35.3375C43.0526 35.7451 43.1342 36.1823 43.1342 36.6238C43.1342 37.0653 43.0526 37.5024 42.8942 37.91C42.7357 38.3176 42.5035 38.6876 42.2109 38.9986L36.4004 45.2262L30.5845 38.9986C29.9988 38.3674 29.67 37.5136 29.67 36.6238C29.67 35.7339 29.9988 34.8802 30.5845 34.2489C31.1735 33.6186 31.9722 33.2645 32.8051 33.2645C33.6378 33.2645 34.4365 33.6186 35.0256 34.2489C35.3955 34.6285 35.888 34.8404 36.4004 34.8404C36.9127 34.8404 37.4053 34.6285 37.7752 34.2489Z" fill="#3A67B1"/>
<rect x="0.5" y="0.5" width="71" height="71" rx="35.5" stroke="#D8E1EF"/>
</svg>
