<svg xmlns="http://www.w3.org/2000/svg" fill="none" viewBox="0 0 69 68">
  <path fill="#3A67B1" fill-rule="evenodd" d="M26.068 47.84c-7.48 0-13.532-6.086-13.532-13.532 0-7.48 6.052-13.532 13.532-13.532 3.502 0 6.732 1.326 9.112 3.536l2.822-2.788C32.868 14.792 37.662 5 46.162 5c5.678 0 10.302 4.59 10.302 10.268 0 8.976-10.744 13.634-17.272 7.548l-2.788 2.788c4.012 4.76 4.284 11.628.578 16.66l2.618 2.618c6.63-5.576 16.864-.85 16.864 7.854 0 5.678-4.624 10.268-10.268 10.268-8.738 0-13.464-10.268-7.854-16.898l-2.482-2.482c-2.482 2.584-5.95 4.216-9.792 4.216Zm0-25.33c-6.494 0-11.764 5.304-11.764 11.798s5.27 11.764 11.764 11.764 11.764-5.27 11.764-11.764-5.27-11.798-11.764-11.798Zm4.692 20.672h-9.384a.878.878 0 0 1-.884-.884V38.32c0-2.72 2.21-4.896 4.896-4.896h1.36c2.686 0 4.862 2.176 4.862 4.896v3.978c0 .51-.374.884-.85.884Zm-8.5-1.734h2.924v-2.38 2.38h3.502v-2.38 2.38h1.19V38.32a3.142 3.142 0 0 0-3.128-3.128h-1.36a3.12 3.12 0 0 0-3.128 3.128v3.128Zm3.808-9.01c-2.142 0-3.91-1.768-3.91-3.91a3.91 3.91 0 0 1 7.82 0c0 2.142-1.768 3.91-3.91 3.91Zm0-6.086c-2.822 0-2.822 4.318 0 4.318s2.822-4.318 0-4.318Zm20.128 17.884c-4.692 0-8.534 3.808-8.534 8.5s3.842 8.534 8.534 8.534 8.5-3.842 8.5-8.534-3.808-8.5-8.5-8.5Zm-.034-37.502c-4.692 0-8.5 3.842-8.5 8.534 0 4.726 3.808 8.534 8.5 8.534a8.518 8.518 0 0 0 8.534-8.534c0-4.692-3.808-8.534-8.534-8.534Z" clip-rule="evenodd"/>
</svg>