<svg xmlns="http://www.w3.org/2000/svg" fill="none" viewBox="0 0 69 68">
  <path fill="#3A67B1" d="M60.34 52.7h-3.06V10.88a1.02 1.02 0 0 0-1.02-1.02h-9.52a1.02 1.02 0 0 0-1.02 1.02V52.7h-5.44V26.52a1.02 1.02 0 0 0-1.02-1.02h-9.52a1.02 1.02 0 0 0-1.02 1.02V52.7h-5.44V41.48a1.02 1.02 0 0 0-1.02-1.02h-9.52a1.02 1.02 0 0 0-1.02 1.02V52.7H8.66a1.02 1.02 0 1 0 0 2.04h51.68a1.02 1.02 0 1 0 0-2.04ZM47.76 11.9h7.48v40.8h-7.48V11.9Zm-17 15.64h7.48V52.7h-7.48V27.54Zm-17 14.96h7.48v10.2h-7.48V42.5ZM8.52 36.96c.27 0 .529-.108.72-.3L37.42 8.483v4.338a1.02 1.02 0 1 0 2.04 0v-6.8a1.012 1.012 0 0 0-.633-.932A1.013 1.013 0 0 0 38.439 5h-6.8a1.02 1.02 0 1 0 0 2.04h4.338L7.799 35.22a1.02 1.02 0 0 0 .721 1.74Z"/>
</svg>