<svg xmlns="http://www.w3.org/2000/svg" fill="none" viewBox="0 0 69 68">
  <g fill="#3A67B1" clip-path="url(#a)">
    <path d="M67.882 26.263a3.55 3.55 0 0 0-4.707-1.891l-5.131 2.263-16.586-5.567a1.116 1.116 0 0 0-.765 0l-3.878 1.7a1.062 1.062 0 0 0-.053 1.923l11.794 6.045-8.904 3.921-8.362-4.016a1.063 1.063 0 0 0-.893 0l-3.261 1.466a1.062 1.062 0 0 0-.192 1.838l11.57 8.256a1.126 1.126 0 0 0 1.063.106L66.14 30.619a3.443 3.443 0 0 0 1.742-4.356Zm-1.987 1.69a1.263 1.263 0 0 1-.669.712L39.26 40.075l-9.563-6.767 1.063-.49 8.361 4.017c.147.057.3.093.457.106a2.8 2.8 0 0 0 .436-.085l11.39-5.015a1.51 1.51 0 0 0 .34-.244 1.062 1.062 0 0 0-.287-1.679l-11.794-6.045 1.467-.649 16.575 5.536c.268.068.55.05.807-.053l5.514-2.444a1.35 1.35 0 0 1 1.87 1.658v.032Z"/>
    <path d="M59.001 32.43a1.061 1.061 0 0 0-1.115 1.008c-1.074 19.859-26.946 26.319-37.411 9.754 2.125-.297 9.977-3.623 8.064-5.727a1.062 1.062 0 0 0-1.498 0 14.588 14.588 0 0 1-7.64 3.762C9.118 18.51 39.473.767 54.306 20.858a1.065 1.065 0 1 0 1.753-1.21c-16.14-21.899-49.31-3.156-38.866 21.919-8.5.966-17.606-5.844-5.536-10.073a1.065 1.065 0 0 0 .497-1.697 1.062 1.062 0 0 0-1.134-.332c-3.38 1.062-5.802 2.805-6.822 4.92-2.837 7.437 8.5 10.157 14.036 9.2C29.336 62.69 58.703 55.921 60 33.545a1.063 1.063 0 0 0-1-1.116Z"/>
  </g>
  <defs>
    <clipPath id="a">
      <path fill="#fff" d="M0 0h68v68H0z" transform="translate(.5)"/>
    </clipPath>
  </defs>
</svg>