<svg xmlns="http://www.w3.org/2000/svg" fill="none" viewBox="0 0 69 68">
  <path fill="#3A67B1" d="M34.5 35.154a7.987 7.987 0 1 0-7.987-7.986 7.996 7.996 0 0 0 7.987 7.986Zm0-13.935a5.947 5.947 0 1 1-5.947 5.947A5.954 5.954 0 0 1 34.5 21.22ZM51.895 28.115a7.987 7.987 0 1 0-7.987-7.99 7.996 7.996 0 0 0 7.987 7.99Zm0-13.934a5.947 5.947 0 1 1-5.947 5.945 5.955 5.955 0 0 1 5.947-5.945Z"/>
  <path fill="#3A67B1" d="M3.9 48.95h16.529c-.1.68-.152 1.365-.154 2.051v3.965a1.02 1.02 0 0 0 1.02 1.02h26.41a1.02 1.02 0 0 0 1.02-1.02V51a14.349 14.349 0 0 0-.154-2.053H65.1a1.02 1.02 0 0 0 1.02-1.02v-3.96a14.226 14.226 0 0 0-26.938-6.384 14.363 14.363 0 0 0-9.374.003 14.218 14.218 0 0 0-26.928 6.38v3.963a1.02 1.02 0 0 0 1.02 1.02Zm47.995-17.167A12.186 12.186 0 0 1 64.08 43.968v2.942H48.126c-.008-.029-.02-.058-.029-.087-.035-.113-.074-.223-.112-.335a14.316 14.316 0 0 0-.191-.544c-.046-.12-.096-.238-.145-.357a11.187 11.187 0 0 0-.387-.859 13.204 13.204 0 0 0-.44-.825 14.964 14.964 0 0 0-.811-1.247c-.074-.1-.145-.204-.221-.302-.124-.162-.256-.32-.388-.476l-.204-.244a14.366 14.366 0 0 0-1.555-1.516c-.1-.084-.203-.162-.305-.244-.224-.177-.451-.35-.684-.514a14.936 14.936 0 0 0-1.083-.685c-.12-.068-.237-.136-.359-.204-.05-.027-.1-.059-.15-.085a12.165 12.165 0 0 1 10.833-6.603Zm-12.588 8.02A12.172 12.172 0 0 1 46.685 51v2.945h-24.37V51a12.059 12.059 0 0 1 1.311-5.5c.148-.29.31-.57.48-.848a12.192 12.192 0 0 1 5.586-4.853 12.298 12.298 0 0 1 9.615.002ZM4.92 43.967a12.191 12.191 0 0 1 23.018-5.59c-.037.02-.072.045-.109.065-.38.204-.748.417-1.108.652l-.021.013c-.36.237-.706.494-1.041.762l-.162.128a15.06 15.06 0 0 0-.919.824l-.162.162c-.294.297-.577.602-.844.923a3.323 3.323 0 0 0-.083.105c-.26.317-.505.644-.735.981-.025.037-.052.072-.077.108-.232.347-.445.705-.646 1.07l-.112.205a13.993 13.993 0 0 0-.61 1.312c-.16.397-.308.8-.432 1.213l-.004.01H4.92v-2.943Z"/>
  <path fill="#3A67B1" d="M17.105 28.115a7.987 7.987 0 1 0-7.987-7.99 7.996 7.996 0 0 0 7.987 7.99Zm0-13.934a5.947 5.947 0 1 1-5.947 5.945 5.955 5.955 0 0 1 5.947-5.945Z"/>
</svg>