<svg xmlns="http://www.w3.org/2000/svg" fill="none" viewBox="0 0 69 68">
  <path stroke="#3A67B1" stroke-linecap="round" stroke-linejoin="round" stroke-miterlimit="10" stroke-width="2" d="M36.625 57.373H9a4.262 4.262 0 0 1-4.25-4.25v-9.35M30.25 51A4.262 4.262 0 0 1 26 46.75v-6.375h8.5v6.375A4.262 4.262 0 0 1 30.25 51Zm8.5-34h-17v-4.25A4.262 4.262 0 0 1 26 8.5h8.5a4.262 4.262 0 0 1 4.25 4.25V17ZM51.5 65.875c8.215 0 14.875-6.66 14.875-14.875S59.715 36.125 51.5 36.125 36.625 42.785 36.625 51s6.66 14.875 14.875 14.875Zm0-21.25v12.75M45.125 51h12.75"/>
  <path stroke="#3A67B1" stroke-linecap="round" stroke-linejoin="round" stroke-miterlimit="10" stroke-width="2" d="M26 46.75H11.125c-4.675 0-8.5-3.825-8.5-8.5v-17A4.262 4.262 0 0 1 6.875 17h46.75a4.262 4.262 0 0 1 4.25 4.25v16.362"/>
</svg>