<svg  viewBox="0 0 20 20" fill="none" xmlns="http://www.w3.org/2000/svg">
<path d="M2.69995 0C1.96664 0 1.29998 0.271195 0.799985 0.77966C0.266675 1.32201 0 1.99994 0 2.71179C0 3.45752 0.299995 4.13549 0.799985 4.64395C1.29998 5.15242 1.99996 5.4575 2.66663 5.42361C2.66663 5.42361 2.69995 5.42361 2.73331 5.42361C3.39998 5.42361 4.03329 5.15242 4.53328 4.64395C5.03327 4.13549 5.33326 3.45752 5.33326 2.71179C5.36658 1.99994 5.06659 1.32197 4.5666 0.813504C4.06661 0.271155 3.39994 0 2.69995 0ZM4.06661 4.16941C3.69993 4.5423 3.19994 4.77957 2.66663 4.74569C2.16664 4.74569 1.63333 4.5423 1.26666 4.16941C0.866664 3.79653 0.666668 3.25418 0.666668 2.71183C0.666668 2.16948 0.866664 1.66101 1.26666 1.25424C1.63333 0.881353 2.13332 0.677967 2.69995 0.677967C3.19994 0.677967 3.69993 0.881353 4.06661 1.25424C4.4666 1.66101 4.6666 2.16948 4.6666 2.71183C4.6666 3.25418 4.4666 3.79653 4.06661 4.16941Z" fill="white"/>
<path d="M4.00026 6.10156L1.30031 6.10156C0.767 6.10156 0.333649 6.54222 0.333649 7.11849L0.333649 18.9827C0.333649 19.525 0.80032 19.9996 1.33363 19.9996H4.00026C4.53357 19.9996 5.00024 19.525 5.00024 19.0166L5.00024 7.11849C5.00024 6.5761 4.53357 6.10156 4.00026 6.10156ZM4.33358 19.0166C4.33358 19.1861 4.1669 19.3217 4.00026 19.3217H1.33363C1.16695 19.3217 1.00032 19.1522 1.00032 18.9827L1.00032 7.11849C1.00032 6.94899 1.13363 6.77953 1.30031 6.77953L4.00026 6.77953C4.16694 6.77953 4.33358 6.94903 4.33358 7.11849L4.33358 19.0166Z" fill="white"/>
<path d="M15.3338 5.76172H14.6338C13.3339 5.76172 12.1006 6.33799 11.3006 7.25323V6.77865C11.3006 6.43969 10.9673 6.10068 10.6339 6.10068L7.30066 6.10068C7.00066 6.10068 6.63399 6.37188 6.63399 6.74472L6.63399 19.3885C6.63399 19.7614 7.00066 19.9987 7.30066 19.9987H10.9673C11.2673 19.9987 11.6339 19.7614 11.6339 19.3885L11.6339 12.0666C11.6339 10.948 12.4339 10.0667 13.4672 10.0667C14.0005 10.0667 14.5005 10.2701 14.8672 10.6429C15.2005 10.948 15.3339 11.4226 15.3339 12.0328L15.3339 19.3208C15.3339 19.6597 15.6672 19.9987 16.0005 19.9987L19.3338 19.9987C19.6671 19.9987 20.0005 19.6598 20.0005 19.3208L20.0005 10.5752C20.0004 7.86339 17.9671 5.76172 15.3338 5.76172ZM19.3338 19.2869L19.3004 19.3208L16.0338 19.3208L16.0005 12.0328C16.0005 11.2193 15.8005 10.6091 15.3672 10.1684C14.8672 9.65998 14.2005 9.38878 13.5005 9.38878C12.1006 9.42267 11.0006 10.5752 11.0006 12.0667L11.0006 19.3208H7.33397L7.33397 6.77865L10.6339 6.77865L10.6672 6.81253V8.94809L11.5672 8.03285L11.6005 7.99897C12.2672 7.04984 13.4338 6.43969 14.6672 6.43969H15.3671C17.6004 6.43969 19.3338 8.27016 19.3338 10.5752L19.3338 19.2869Z" fill="white"/>
</svg>
