<svg  viewBox="0 0 24 24" fill="none" xmlns="http://www.w3.org/2000/svg">
<path d="M11.1002 3C7.45057 3.00657 5.53942 3.09617 4.31806 4.31754C3 5.63559 3 7.75698 3 11.9997C3 16.2425 3 18.3639 4.31806 19.6819C5.63611 21 7.7575 21 12.0003 21C16.243 21 18.3644 21 19.6825 19.6819C20.9038 18.4606 20.9934 16.5494 21 12.8998" stroke="#3A67B1" stroke-linecap="round" stroke-linejoin="round"/>
<path d="M20.8949 3.85434C21.0906 3.65951 21.0913 3.34292 20.8965 3.14723C20.7017 2.95154 20.3851 2.95084 20.1894 3.14566L20.8949 3.85434ZM10.6472 12.6457C10.4515 12.8405 10.4508 13.1571 10.6457 13.3528C10.8405 13.5485 11.1571 13.5492 11.3528 13.3543L10.6472 12.6457ZM20.0285 3.22706L19.9413 3.7194L20.0285 3.22706ZM16 2.5C15.7238 2.50002 15.5 2.7239 15.5 3.00004C15.5 3.27619 15.7239 3.50002 16.0001 3.5L16 2.5ZM20.5 8C20.5 8.27614 20.7239 8.5 21 8.5C21.2762 8.5 21.5 8.27614 21.5 8H20.5ZM20.773 3.97175L21.2653 3.88464V3.88464L20.773 3.97175ZM20.1894 3.14566L10.6472 12.6457L11.3528 13.3543L20.8949 3.85434L20.1894 3.14566ZM20.1157 2.73472C19.4345 2.61409 18.3943 2.55686 17.5497 2.52857C17.122 2.51425 16.7352 2.50712 16.4553 2.50355C16.3153 2.50177 16.2019 2.50088 16.1233 2.50044C16.084 2.50022 16.0534 2.50011 16.0325 2.50005C16.022 2.50003 16.014 2.50001 16.0085 2.50001C16.0058 2.5 16.0037 2.5 16.0023 2.5C16.0016 2.5 16.001 2.5 16.0006 2.5C16.0004 2.5 16.0003 2.5 16.0002 2.5C16.0001 2.5 16.0001 2.5 16 2.5C16 2.5 16 2.5 16 3C16.0001 3.5 16 3.5 16 3.5C16.0001 3.5 16.0001 3.5 16.0001 3.5C16.0002 3.5 16.0003 3.5 16.0004 3.5C16.0007 3.5 16.0011 3.5 16.0017 3.5C16.0029 3.5 16.0048 3.5 16.0073 3.50001C16.0123 3.50001 16.0199 3.50002 16.0298 3.50005C16.0498 3.5001 16.0794 3.50021 16.1177 3.50043C16.1942 3.50086 16.3052 3.50173 16.4426 3.50347C16.7175 3.50697 17.0972 3.51398 17.5162 3.52801C18.365 3.55644 19.339 3.61273 19.9413 3.7194L20.1157 2.73472ZM21 8C21.5 8 21.5 7.99997 21.5 7.99993C21.5 7.9999 21.5 7.99985 21.5 7.99979C21.5 7.99968 21.5 7.99953 21.5 7.99934C21.5 7.99895 21.5 7.9984 21.5 7.99768C21.5 7.99624 21.5 7.99415 21.5 7.99143C21.5 7.98597 21.5 7.97795 21.5 7.9675C21.4999 7.94661 21.4998 7.916 21.4996 7.87669C21.4991 7.79809 21.4982 7.68467 21.4964 7.54467C21.4928 7.26483 21.4857 6.87804 21.4714 6.45041C21.443 5.60589 21.3858 4.56573 21.2653 3.88464L20.2806 4.05885C20.3872 4.66119 20.4435 5.63516 20.4719 6.48391C20.486 6.90291 20.493 7.28255 20.4965 7.55746C20.4983 7.69485 20.4991 7.80589 20.4996 7.88241C20.4998 7.92066 20.4999 7.95028 20.5 7.97022C20.5 7.98019 20.5 7.98774 20.5 7.99275C20.5 7.99525 20.5 7.99712 20.5 7.99833C20.5 7.99894 20.5 7.99938 20.5 7.99966C20.5 7.9998 20.5 7.9999 20.5 7.99996C20.5 7.99998 20.5 7.99999 20.5 8.00001C20.5 8.00001 20.5 8 21 8ZM19.9413 3.7194C20.1258 3.75208 20.2479 3.87416 20.2806 4.05885L21.2653 3.88464C21.1595 3.28661 20.7139 2.84066 20.1157 2.73472L19.9413 3.7194Z" fill="#3A67B1"/>
</svg>
