<svg width="10" height="11" viewBox="0 0 10 11" fill="none" xmlns="http://www.w3.org/2000/svg">
<path d="M5.80887 10.1835C5.59203 10.3865 5.30219 10.5 5.00056 10.5C4.69892 10.5 4.40909 10.3865 4.19224 10.1835C2.20651 8.31299 -0.454619 6.22346 0.843134 3.18983C1.54482 1.54958 3.22917 0.5 5.00056 0.5C6.77195 0.5 8.4563 1.54958 9.15798 3.18983C10.4541 6.21963 7.79951 8.31944 5.80887 10.1835Z" stroke="#6185C1"/>
<path d="M6.75 5C6.75 5.9665 5.9665 6.75 5 6.75C4.0335 6.75 3.25 5.9665 3.25 5C3.25 4.0335 4.0335 3.25 5 3.25C5.9665 3.25 6.75 4.0335 6.75 5Z" stroke="#6185C1"/>
</svg>
