<svg  viewBox="0 0 148 72" fill="none" xmlns="http://www.w3.org/2000/svg">
<path d="M35.0557 33.3538C34.0388 41.3446 29.9607 45.2906 21.5231 45.2906C12.8464 45.2906 9.94063 40.5692 9.70801 36.1826C9.61654 34.5256 9.80692 31.7937 10.2331 29.8488H19.7297C19.6041 31.1147 19.0954 33.3055 19.1632 34.576C19.2448 36.0847 20.1147 37.0086 21.5594 37.0086C23.4417 37.0086 24.0569 35.9374 24.2995 34.1849L28.1404 9.67773H38.7431L35.0557 33.3538Z" fill="#0097D7"/>
<path d="M73.1557 31.2785C72.7164 34.8322 70.558 45.2904 56.1183 45.2904C46.0535 45.2904 40.8363 38.7733 40.3327 29.4804C39.7205 18.2428 46.2151 8.90332 58.0311 8.90332C65.7627 8.90332 72.8512 12.2603 73.6125 22.6713H63.4974C63.4176 19.412 61.7613 17.5629 58.4549 17.5629C52.5217 17.5629 50.7527 24.3729 51.0185 29.287C51.1727 32.1566 52.099 36.6345 57.0102 36.6345C60.3657 36.6345 62.1383 34.3448 62.6524 31.2785H73.1557Z" fill="#0097D7"/>
<path d="M81.2074 9.67773H91.8223L86.5555 44.5164H75.9375L81.2074 9.67773Z" fill="#0097D7"/>
<path fill-rule="evenodd" clip-rule="evenodd" d="M115.379 43.1526C102.315 30.095 102.833 16.6469 103.227 16.5159C109.7 14.3568 109.762 9.72282 109.762 9.72282H121.041C121.041 9.72282 121.107 14.3568 127.575 16.5159C127.968 16.6469 128.49 30.095 115.424 43.1526H115.379ZM115.379 49.1615C95.5153 30.6182 98.91 13.5096 99.1746 13.5096C106.663 13.5096 106.492 5.80664 106.492 5.80664H124.42C124.42 5.80664 124.246 13.5096 131.737 13.5096C131.996 13.5096 135.397 30.6182 115.533 49.1615H115.379Z" fill="#0097D7"/>
<path fill-rule="evenodd" clip-rule="evenodd" d="M115.457 18.693C113.592 18.693 112.083 20.202 112.083 22.0643C112.083 23.9273 113.592 25.4372 115.457 25.4372C117.322 25.4372 118.831 23.9273 118.831 22.0643C118.831 20.202 117.322 18.693 115.457 18.693ZM119.331 22.0643C119.331 24.2018 117.596 25.9353 115.457 25.9353C113.317 25.9353 111.582 24.2018 111.582 22.0643C111.582 19.9272 113.317 18.1934 115.457 18.1934C117.596 18.1934 119.331 19.9272 119.331 22.0643Z" fill="#0097D7"/>
<path fill-rule="evenodd" clip-rule="evenodd" d="M115.071 17.2918C112.434 17.2918 110.297 19.4284 110.297 22.0649C110.297 24.697 112.434 26.8359 115.071 26.8359C117.705 26.8359 119.844 24.697 119.844 22.0649C119.844 19.4284 117.705 17.2918 115.071 17.2918ZM120.493 22.0649C120.493 25.0582 118.064 27.4842 115.071 27.4842C112.075 27.4842 109.645 25.0582 109.645 22.0649C109.645 19.0689 112.075 16.6455 115.071 16.6455C118.064 16.6455 120.493 19.0689 120.493 22.0649Z" fill="#0097D7"/>
<path fill-rule="evenodd" clip-rule="evenodd" d="M115.457 14.9466C111.732 14.9466 108.716 17.9616 108.716 21.6779C108.716 25.3952 111.732 28.4055 115.457 28.4055C119.175 28.4055 122.192 25.3952 122.192 21.6779C122.192 17.9616 119.175 14.9466 115.457 14.9466ZM122.816 21.6779C122.816 25.7372 119.52 29.0319 115.457 29.0319C111.392 29.0319 108.094 25.7372 108.094 21.6779C108.094 17.6155 111.392 14.3223 115.457 14.3223C119.52 14.3223 122.816 17.6155 122.816 21.6779Z" fill="#0097D7"/>
<path fill-rule="evenodd" clip-rule="evenodd" d="M115.458 13.4786C110.71 13.4786 106.864 17.3237 106.864 22.0655C106.864 26.8061 110.71 30.6493 115.458 30.6493C120.201 30.6493 124.046 26.8061 124.046 22.0655C124.046 17.3237 120.201 13.4786 115.458 13.4786ZM124.753 22.0655C124.753 27.1944 120.59 31.3551 115.458 31.3551C110.325 31.3551 106.156 27.1944 106.156 22.0655C106.156 16.9337 110.325 12.7744 115.458 12.7744C120.59 12.7744 124.753 16.9337 124.753 22.0655Z" fill="#0097D7"/>
<path fill-rule="evenodd" clip-rule="evenodd" d="M124.366 22.0648H106.156V21.6777H124.366V22.0648Z" fill="#0097D7"/>
<path fill-rule="evenodd" clip-rule="evenodd" d="M115.456 12.7744V30.968H115.068V12.7744H115.456Z" fill="#0097D7"/>
<path fill-rule="evenodd" clip-rule="evenodd" d="M121.655 15.884L108.877 28.6437L108.482 28.2445L121.253 15.4824L121.655 15.884Z" fill="#0097D7"/>
<path fill-rule="evenodd" clip-rule="evenodd" d="M108.877 15.4824L121.655 28.244L121.255 28.6437L108.482 15.8824L108.877 15.4824Z" fill="#0097D7"/>
<path fill-rule="evenodd" clip-rule="evenodd" d="M119.634 16.3748C119.541 16.1598 119.41 15.9161 119.368 15.6944C119.327 15.4988 119.387 15.2888 119.33 15.1045C119.629 14.976 120.002 16.467 120.248 16.7393C120.703 17.2565 121.434 17.6707 122.042 17.94C122.031 18.3767 121.378 18.1453 121.174 18.0091C120.796 17.747 120.699 17.6809 120.209 17.6825C120.049 17.6825 119.785 17.7377 119.643 17.6492C119.404 17.5002 119.524 17.4469 119.482 17.2176C119.41 16.8264 119.469 16.4613 119.368 16.0773" fill="#0097D7"/>
<path fill-rule="evenodd" clip-rule="evenodd" d="M116.334 14.0747C116.274 14.2726 116.445 14.3606 116.6 14.3074C116.689 13.9273 116.424 13.8381 116.23 14.0422C116.251 14.0559 116.281 14.0913 116.299 14.1216" fill="#0097D7"/>
<path fill-rule="evenodd" clip-rule="evenodd" d="M119.175 17.207C118.91 17.181 118.452 16.7812 118.576 17.2859C118.637 17.5274 119.081 17.7301 119.259 17.8738C119.716 18.2415 120.131 19.0647 120.879 18.9583C120.514 18.6039 120.124 18.3076 119.803 17.9211C119.577 17.6507 119.346 17.3719 119.051 17.1706" fill="#0097D7"/>
<path fill-rule="evenodd" clip-rule="evenodd" d="M116.704 23.3848C116.406 23.3481 115.992 23.9027 115.828 24.1383C115.61 24.4474 115.407 25.0097 115.465 25.3784C115.675 26.6923 116.977 26.3621 117.842 26.1811C118.098 26.7427 118.523 26.5103 118.987 26.5722C119.408 26.6315 119.754 27.0692 120.153 27.0954C120.862 27.1426 120.271 25.4271 120.058 25.0118C119.842 24.5964 119.374 24.4474 119.118 24.0944C118.874 23.7497 118.862 23.2013 118.656 22.8004C118.257 22.0398 117.155 22.6916 116.696 23.1518C116.602 23.2483 116.532 23.3082 116.496 23.4326" fill="#0097D7"/>
<path fill-rule="evenodd" clip-rule="evenodd" d="M117.33 25.5488C117.012 25.8565 116.783 26.4736 117.351 26.6697C117.675 26.7799 117.658 26.6549 117.94 26.4159C118.183 26.2122 118.187 26.2021 118.547 26.1937C118.649 25.5226 117.512 25.8421 117.176 25.5847" fill="#0097D7"/>
<path fill-rule="evenodd" clip-rule="evenodd" d="M118.163 23.2534C118.645 22.8098 119.118 22.2534 119.718 22.0215C119.488 21.4076 119.005 21.1648 118.671 20.6135C118.318 20.0302 118.038 19.3669 117.583 18.8754C117.008 18.2456 116.52 18.7191 116.273 19.4245C116.171 19.7238 116.018 20.0443 115.973 20.3682C115.917 20.7689 116.08 20.893 116.271 21.2519C115.883 21.4569 116.191 21.9773 116.244 22.3148C115.905 22.3326 116.024 22.6811 116.003 22.9482C115.831 23.0654 115.754 23.4926 116.002 23.5888C116.083 23.1281 116.219 23.3426 116.394 23.4231C116.394 23.4231 116.47 23.5649 116.516 23.5912C116.6 23.6418 116.853 23.5896 116.95 23.5896" fill="#0097D7"/>
<path fill-rule="evenodd" clip-rule="evenodd" d="M111.297 22.8386C111.535 22.9261 112.012 22.9661 112.201 23.1387C112.41 23.327 112.539 23.8637 112.738 24.1104C113.069 24.5194 113.606 24.6685 113.506 25.3134C113.161 25.5044 112.828 25.3104 112.522 25.4846C112.452 25.5288 112.484 25.6674 112.408 25.7261C112.182 25.8932 111.844 25.9056 111.583 25.9274C110.762 26.0052 110.614 25.5015 110.031 25.0053C110.329 24.5103 111.333 23.9371 110.977 23.2454C111.158 23.0758 111.405 23.1418 111.418 22.8386" fill="#0097D7"/>
<path fill-rule="evenodd" clip-rule="evenodd" d="M113.437 21.2904C113.538 20.5456 113.385 19.625 113.755 18.9462C114.03 18.4392 115.326 17.995 115.843 18.2861C115.72 18.2166 115.182 19.6333 115.122 19.7517C114.788 20.4812 114.847 20.1028 114.291 19.9963C113.965 19.9323 113.493 20.1028 113.277 20.3827C112.966 20.7822 113.215 20.9423 113.437 21.2904Z" fill="#0097D7"/>
<path fill-rule="evenodd" clip-rule="evenodd" d="M114.094 20.3586C113.401 21.2271 114.812 21.7784 115.332 22.0644C115.656 21.4599 115.273 20.9357 114.989 20.4572C114.574 19.7582 114.524 20.3652 114.061 20.5456C114.068 20.5994 114.048 20.6045 114.014 20.6266" fill="#0097D7"/>
<path d="M134.715 42.1936V42.5501H133.629V45.2904H133.201V42.5501H132.115V42.1936H134.715Z" fill="#0097D7"/>
<path d="M135.082 42.1934H135.673L136.714 44.8159L137.718 42.1934H138.313V45.2901H137.908V42.7066L136.895 45.2901H136.523L135.491 42.7066V45.2901H135.082V42.1934Z" fill="#0097D7"/>
<path d="M46.0905 52.2578V58.1831C46.0905 59.5952 45.7464 60.6381 45.0584 61.3116C44.3796 61.9763 43.3149 62.3084 41.8643 62.3084C40.3948 62.3084 39.3115 61.9716 38.6142 61.2981C37.9261 60.6148 37.582 59.5674 37.582 58.1552V52.2578H39.7579V58.1552C39.7579 58.9581 39.9113 59.5534 40.2181 59.9413C40.525 60.3288 41.0833 60.5227 41.8922 60.5227C42.6733 60.5227 43.2033 60.3288 43.4823 59.9413C43.7705 59.5534 43.9146 58.9581 43.9146 58.1552V52.2578H46.0905Z" fill="#EDBE38"/>
<path d="M54.7541 54.9714L52.0483 57.6152L55.0749 62.1148H52.6759L50.6953 58.9445L49.886 59.692V62.1148H47.9473V52.2578H49.886V57.5324L52.4248 54.9714H54.7541Z" fill="#EDBE38"/>
<path d="M60.4496 54.8465V56.66C60.1707 56.6047 59.915 56.5768 59.6825 56.5768C59.0316 56.5768 58.5528 56.7847 58.2455 57.2C57.9387 57.6061 57.7853 58.155 57.7853 58.8471V62.1146H55.8047V54.9711H57.6876V56.2861C58.1618 55.2986 58.9386 54.8047 60.0173 54.8047C60.1102 54.8047 60.2544 54.8186 60.4496 54.8465Z" fill="#EDBE38"/>
<path d="M67.8916 62.115H65.8831C65.8181 61.9304 65.7716 61.6997 65.7437 61.4225C65.1393 62.0225 64.3629 62.3225 63.414 62.3225C62.6144 62.3225 61.9867 62.1332 61.5311 61.755C61.0755 61.3672 60.8477 60.8364 60.8477 60.1629C60.8477 59.8583 60.8849 59.5908 60.9592 59.3601C61.0429 59.1293 61.1731 58.9354 61.3498 58.7786C61.5357 58.6215 61.7078 58.4922 61.8658 58.3908C62.0332 58.2893 62.261 58.2061 62.5493 58.1415C62.8375 58.0772 63.07 58.0308 63.2467 58.0033C63.4233 57.9661 63.6697 57.9293 63.9863 57.8926C64.6837 57.8001 65.1486 57.7033 65.381 57.6019C65.6228 57.5001 65.7437 57.3112 65.7437 57.034C65.7437 56.3972 65.3113 56.079 64.4465 56.079C63.9909 56.079 63.6558 56.1619 63.4419 56.3279C63.2281 56.4851 63.0886 56.7665 63.0235 57.1726H61.1685C61.28 55.5665 62.3912 54.7637 64.5023 54.7637C66.5945 54.7637 67.6405 55.539 67.6405 57.0893V60.1768C67.6405 61.0811 67.7242 61.7272 67.8916 62.115ZM65.7297 58.6401C65.4973 58.7786 65.0323 58.9029 64.335 59.014C63.7488 59.1061 63.3675 59.2215 63.1909 59.3601C62.9863 59.5354 62.884 59.7754 62.884 60.0797C62.884 60.375 62.977 60.6104 63.163 60.7857C63.3582 60.9518 63.6279 61.035 63.9723 61.035C64.5023 61.035 64.9254 60.8964 65.2416 60.6197C65.567 60.3336 65.7297 59.9415 65.7297 59.4429V58.6401Z" fill="#EDBE38"/>
<path d="M71.2423 52.2578V53.9192H69.2617V52.2578H71.2423ZM71.2423 54.9714V62.1148H69.2617V54.9714H71.2423Z" fill="#EDBE38"/>
<path d="M79.5814 62.1148H77.5729V57.9477C77.5729 57.4398 77.4893 57.057 77.3219 56.7984C77.1545 56.5309 76.8291 56.397 76.3452 56.397C75.3037 56.397 74.783 57.0248 74.783 58.2798V62.1148H72.8164V54.9713H74.6993V55.9681C75.2944 55.1741 76.0895 54.7773 77.0848 54.7773C77.8565 54.7773 78.4656 54.9988 78.9119 55.442C79.3582 55.8848 79.5814 56.517 79.5814 57.3384V62.1148Z" fill="#EDBE38"/>
<path d="M87.8352 59.8997C87.6121 60.6657 87.1983 61.2611 86.5939 61.6857C85.9988 62.1104 85.2875 62.3225 84.4595 62.3225C83.353 62.3225 82.4604 61.9811 81.7816 61.2983C81.1121 60.615 80.7773 59.7108 80.7773 58.5847C80.7773 57.4772 81.1167 56.5633 81.7955 55.8437C82.4743 55.1237 83.3391 54.7637 84.3898 54.7637C85.4781 54.7637 86.3428 55.133 86.9844 55.8712C87.626 56.6004 87.9468 57.5926 87.9468 58.8475V59.0415H82.7858C82.7951 59.6601 82.9439 60.1304 83.2321 60.4536C83.5297 60.7764 83.9435 60.9382 84.4735 60.9382C85.1712 60.9382 85.6594 60.5922 85.9384 59.8997H87.8352ZM85.9384 57.7954C85.8919 57.3247 85.7384 56.9419 85.4781 56.6465C85.2177 56.3419 84.8551 56.1897 84.3898 56.1897C83.9528 56.1897 83.5901 56.3326 83.3019 56.6186C83.0136 56.9051 82.8416 57.2972 82.7858 57.7954H85.9384Z" fill="#EDBE38"/>
</svg>
