<svg viewBox="0 0 148 72" fill="none"><path fill="#fff" d="M35.056 33.354c-1.017 7.99-5.095 11.937-13.533 11.937-8.677 0-11.582-4.722-11.815-9.108-.091-1.657.099-4.39.525-6.334h9.497c-.126 1.266-.635 3.457-.567 4.727.082 1.509.952 2.433 2.396 2.433 1.883 0 2.498-1.072 2.74-2.824L28.14 9.678h10.603l-3.687 23.676ZM73.156 31.279c-.44 3.553-2.598 14.011-17.038 14.011-10.065 0-15.282-6.517-15.785-15.81C39.72 18.243 46.215 8.903 58.03 8.903c7.732 0 14.82 3.357 15.581 13.768H63.497c-.08-3.259-1.736-5.108-5.042-5.108-5.933 0-7.702 6.81-7.436 11.724.154 2.87 1.08 7.348 5.991 7.348 3.356 0 5.128-2.29 5.642-5.356h10.504ZM81.207 9.678h10.615l-5.267 34.838H75.938l5.27-34.838Z"/><path fill="#fff" fill-rule="evenodd" d="M115.379 43.153c-13.064-13.058-12.546-26.506-12.152-26.637 6.473-2.16 6.535-6.793 6.535-6.793h11.279s.066 4.634 6.534 6.793c.393.13.915 13.579-12.151 26.637h-.045Zm0 6.008C95.515 30.618 98.91 13.51 99.175 13.51c7.488 0 7.317-7.703 7.317-7.703h17.928s-.174 7.703 7.317 7.703c.259 0 3.66 17.108-16.204 35.651h-.154Z" clip-rule="evenodd"/><path fill="#fff" fill-rule="evenodd" d="M115.457 18.693a3.371 3.371 0 1 0 0 6.744 3.372 3.372 0 1 0 0-6.744Zm3.874 3.371a3.873 3.873 0 0 1-3.874 3.871 3.873 3.873 0 0 1-3.875-3.87 3.873 3.873 0 0 1 3.875-3.872 3.873 3.873 0 0 1 3.874 3.871Z" clip-rule="evenodd"/><path fill="#fff" fill-rule="evenodd" d="M115.071 17.292a4.773 4.773 0 1 0-.002 9.546 4.773 4.773 0 0 0 .002-9.546Zm5.422 4.773a5.421 5.421 0 0 1-5.422 5.42 5.423 5.423 0 0 1-5.426-5.42c0-2.996 2.43-5.42 5.426-5.42a5.42 5.42 0 0 1 5.422 5.42Z" clip-rule="evenodd"/><path fill="#fff" fill-rule="evenodd" d="M115.457 14.947a6.736 6.736 0 0 0-6.741 6.73c0 3.718 3.016 6.729 6.741 6.729a6.731 6.731 0 0 0 6.735-6.728 6.735 6.735 0 0 0-6.735-6.731Zm7.359 6.73a7.359 7.359 0 0 1-7.359 7.355c-4.065 0-7.363-3.295-7.363-7.354 0-4.063 3.298-7.356 7.363-7.356a7.358 7.358 0 0 1 7.359 7.356Z" clip-rule="evenodd"/><path fill="#fff" fill-rule="evenodd" d="M115.458 13.479c-4.748 0-8.594 3.845-8.594 8.587 0 4.74 3.846 8.583 8.594 8.583 4.743 0 8.588-3.843 8.588-8.584a8.588 8.588 0 0 0-8.588-8.586Zm9.295 8.587c0 5.128-4.163 9.29-9.295 9.29-5.133 0-9.302-4.162-9.302-9.29 0-5.132 4.169-9.292 9.302-9.292 5.132 0 9.295 4.16 9.295 9.292Z" clip-rule="evenodd"/><path fill="#fff" fill-rule="evenodd" d="M124.366 22.065h-18.21v-.387h18.21v.387Z" clip-rule="evenodd"/><path fill="#fff" fill-rule="evenodd" d="M115.456 12.774v18.194h-.388V12.774h.388Z" clip-rule="evenodd"/><path fill="#fff" fill-rule="evenodd" d="m121.655 15.884-12.778 12.76-.395-.4 12.771-12.762.402.402Z" clip-rule="evenodd"/><path fill="#fff" fill-rule="evenodd" d="m108.877 15.482 12.778 12.762-.4.4-12.773-12.762.395-.4ZM119.634 16.375c-.093-.215-.224-.459-.266-.68-.041-.196.019-.406-.038-.59.299-.129.672 1.362.918 1.634.455.517 1.186.932 1.794 1.201-.011.437-.664.205-.867.07-.378-.263-.476-.33-.966-.328-.159 0-.423.056-.566-.033-.239-.149-.119-.202-.161-.431-.072-.392-.012-.757-.114-1.14M116.334 14.075c-.06.198.111.286.266.232.089-.38-.175-.469-.37-.265.021.014.052.05.069.08" clip-rule="evenodd"/><path fill="#fff" fill-rule="evenodd" d="M119.175 17.207c-.265-.026-.723-.426-.599.079.061.241.505.444.683.588.457.367.872 1.19 1.62 1.084-.365-.354-.755-.65-1.076-1.037-.226-.27-.457-.55-.752-.75M116.704 23.385c-.298-.037-.712.518-.876.753-.218.31-.421.872-.363 1.24.21 1.314 1.512.984 2.377.803.256.562.681.33 1.145.391.421.06.767.497 1.166.523.709.048.118-1.668-.095-2.083-.216-.416-.684-.565-.94-.918-.244-.344-.256-.893-.462-1.294-.399-.76-1.501-.108-1.96.352-.094.096-.164.156-.2.28" clip-rule="evenodd"/><path fill="#fff" fill-rule="evenodd" d="M117.33 25.549c-.318.308-.547.925.021 1.12.324.11.307-.014.589-.253.243-.204.247-.214.607-.222.102-.671-1.035-.352-1.371-.61M118.163 23.253c.482-.443.955-1 1.555-1.232-.23-.613-.713-.856-1.047-1.408-.353-.583-.633-1.246-1.088-1.738-.575-.63-1.063-.156-1.31.55-.102.299-.255.62-.3.943-.056.4.107.525.298.884-.388.205-.08.725-.027 1.063-.339.018-.22.366-.241.633-.172.117-.249.545-.001.64.081-.46.217-.245.392-.165 0 0 .076.142.122.168.084.05.337-.001.434-.001M111.297 22.839c.238.087.714.127.904.3.209.188.338.725.536.972.332.409.869.558.769 1.203-.345.19-.678-.003-.984.17-.07.045-.038.184-.115.242-.225.167-.563.18-.824.202-.821.077-.969-.426-1.552-.922.298-.495 1.302-1.069.946-1.76.181-.17.428-.104.441-.407M113.437 21.29c.101-.745-.052-1.665.318-2.344.275-.507 1.571-.951 2.088-.66-.123-.07-.661 1.347-.722 1.465-.333.73-.274.351-.83.245-.326-.064-.798.107-1.014.387-.311.399-.062.56.16.907Z" clip-rule="evenodd"/><path fill="#fff" fill-rule="evenodd" d="M114.094 20.359c-.693.868.718 1.42 1.238 1.705.324-.604-.059-1.128-.343-1.607-.415-.699-.465-.092-.928.089.007.053-.013.059-.047.08" clip-rule="evenodd"/><path fill="#fff" d="M134.715 42.193v.357h-1.086v2.74h-.428v-2.74h-1.086v-.357h2.6ZM135.082 42.193h.591l1.041 2.623 1.004-2.623h.595v3.097h-.405v-2.583l-1.013 2.583h-.372l-1.032-2.583v2.583h-.409v-3.097ZM46.09 52.258v5.925c0 1.412-.344 2.455-1.032 3.129-.678.664-1.743.996-3.194.996-1.47 0-2.552-.336-3.25-1.01-.688-.683-1.032-1.73-1.032-3.143v-5.897h2.176v5.897c0 .803.153 1.398.46 1.786.307.388.865.582 1.674.582.781 0 1.311-.194 1.59-.582.288-.388.433-.983.433-1.786v-5.897h2.175ZM54.754 54.971l-2.706 2.644 3.027 4.5h-2.4l-1.98-3.17-.809.747v2.423h-1.939v-9.857h1.939v5.274l2.539-2.56h2.33ZM60.45 54.846v1.814a3.97 3.97 0 0 0-.768-.083c-.65 0-1.13.208-1.437.623-.306.406-.46.955-.46 1.647v3.268h-1.98V54.97h1.883v1.315c.474-.987 1.25-1.481 2.33-1.481.092 0 .236.014.432.041ZM67.892 62.115h-2.009a3.03 3.03 0 0 1-.14-.693c-.604.6-1.38.9-2.329.9-.8 0-1.427-.189-1.883-.567-.456-.388-.683-.919-.683-1.592 0-.305.037-.572.111-.803.084-.23.214-.425.39-.581.187-.158.359-.287.517-.388.167-.102.395-.185.683-.25.288-.064.521-.11.698-.138a8.62 8.62 0 0 1 .74-.11c.697-.093 1.162-.19 1.394-.291.242-.102.363-.29.363-.568 0-.637-.433-.955-1.297-.955-.456 0-.791.083-1.005.249-.214.157-.353.438-.419.845h-1.855c.112-1.607 1.223-2.41 3.334-2.41 2.093 0 3.139.776 3.139 2.326v3.088c0 .904.083 1.55.25 1.938ZM65.73 58.64c-.233.139-.698.263-1.395.374-.586.092-.967.207-1.144.346-.205.175-.307.415-.307.72 0 .295.093.53.279.706.195.166.465.249.81.249.53 0 .952-.139 1.269-.415.325-.286.488-.678.488-1.177v-.803ZM71.242 52.258v1.661h-1.98v-1.661h1.98Zm0 2.713v7.144h-1.98V54.97h1.98ZM79.581 62.115h-2.008v-4.167c0-.508-.084-.891-.251-1.15-.168-.267-.493-.401-.977-.401-1.041 0-1.562.628-1.562 1.883v3.835h-1.967V54.97H74.7v.997c.595-.794 1.39-1.19 2.386-1.19.772 0 1.38.22 1.827.664.446.443.67 1.075.67 1.896v4.777ZM87.835 59.9c-.223.766-.637 1.361-1.241 1.786-.595.424-1.306.636-2.134.636-1.107 0-2-.34-2.678-1.024-.67-.683-1.005-1.587-1.005-2.713 0-1.108.34-2.022 1.019-2.741.678-.72 1.543-1.08 2.594-1.08 1.088 0 1.953.369 2.594 1.107.642.73.963 1.722.963 2.976v.194h-5.161c.01.62.158 1.09.446 1.413.298.322.712.484 1.242.484.697 0 1.185-.346 1.464-1.038h1.897Zm-1.897-2.105c-.046-.47-.2-.853-.46-1.148-.26-.305-.623-.457-1.088-.457-.437 0-.8.143-1.088.429-.288.286-.46.678-.516 1.176h3.152Z"/></svg>