<svg  viewBox="0 0 72 72" fill="none" xmlns="http://www.w3.org/2000/svg">
<path d="M32.4567 33.031C32.4567 34.1716 31.5321 35.0961 30.3915 35.0961C29.2509 35.0961 28.3262 34.1716 28.3262 33.031C28.3262 31.8905 29.2509 30.9659 30.3915 30.9659C31.5321 30.9659 32.4567 31.8905 32.4567 33.031ZM32.4567 33.031C36.8157 33.1782 39.2404 34.2336 43.5575 36.3868M20.0652 35.6124C21.2059 35.6124 22.1305 34.6878 22.1305 33.5473C22.1305 32.4068 21.2059 31.4822 20.0652 31.4822M20.0652 35.6124C18.9246 35.6124 18 34.6878 18 33.5473C18 32.4068 18.9246 31.4822 20.0652 31.4822M20.0652 35.6124C20.0652 35.6124 18.5 43 25.3785 49.8099M20.0652 31.4822C20.5 29 23.3405 23.7617 25.2284 22.6646M21.8723 33.2892C24.4333 32.72 25.8983 32.5282 28.5844 32.5148M29.1007 21.673C30.9362 22.1671 32.4598 22.8163 35.5546 24.2543M38.7268 24.01C40.6859 22.4997 44.3319 21.673 44.3319 21.673M50.0114 27.0939C48.9801 30.4531 48.2223 32.2739 46.3972 35.3543M46.6553 49.0356C48 43.5 46.5298 40.7058 46.3972 39.2264M29.1007 50.3263C35.9424 47.5519 39.2421 44.9248 44.3319 38.7101M27.0355 48.7775C26.6612 42.7391 27.1239 39.6151 29.3589 34.5799M31.4241 31.4822C32.8516 29.2046 33.8063 28.1229 35.8128 26.5776M38.3943 26.5776C41.474 29.727 42.7639 31.6524 44.3319 35.3543M29.1007 20.1561C28.7484 19.5213 28.0712 19.0916 27.2936 19.0916C26.153 19.0916 25.2284 20.0162 25.2284 21.1567C25.2284 21.7516 25.4799 22.2877 25.8825 22.6646C26.2517 23.0102 26.748 23.2218 27.2936 23.2218C28.4342 23.2218 29.3589 22.2972 29.3589 21.1567C29.3589 20.9748 29.3354 20.7984 29.2912 20.6304C29.2472 20.4631 29.1828 20.304 29.1007 20.1561ZM29.1007 20.1561C33.2312 17.7431 39.1688 16.9688 44.7849 19.866M44.7849 19.866C44.5015 20.2196 44.3319 20.6683 44.3319 21.1567C44.3319 22.2972 45.2566 23.2218 46.3972 23.2218C47.5378 23.2218 48.4624 22.2972 48.4624 21.1567C48.4624 20.0162 47.5378 19.0916 46.3972 19.0916C45.745 19.0916 45.1634 19.3939 44.7849 19.866ZM47.9461 22.1892L49.2369 23.4799M52.2715 26.8991C52.7436 26.5206 52.5929 25.9391 52.5929 25.2869C52.5929 24.1464 51.6683 23.2218 50.5277 23.2218C49.3871 23.2218 48.4624 24.1464 48.4624 25.2869C48.4624 26.4274 49.3871 27.352 50.5277 27.352C51.0161 27.352 51.9179 27.1825 52.2715 26.8991ZM52.2715 26.8991C56.5 33.031 55.5 44.5 48.4624 49.8099M48.4624 49.8099C48.0839 49.3379 47.0494 49.0356 46.3972 49.0356C45.2566 49.0356 44.3319 49.9602 44.3319 51.1007C44.3319 51.4768 44.4325 51.8294 44.6082 52.1332M48.4624 49.8099C48.7459 50.1635 48.4624 50.6123 48.4624 51.1007C48.4624 52.2412 47.5378 53.1658 46.3972 53.1658C45.6327 53.1658 44.9653 52.7505 44.6082 52.1332M44.6082 52.1332C41 55 33 54 28.8745 51.9133M28.8745 51.9133C29.1768 51.5542 29.3589 51.0906 29.3589 50.5844C29.3589 49.4439 28.4342 48.5193 27.2936 48.5193C26.4269 48.5193 25.6849 49.0532 25.3785 49.8099M28.8745 51.9133C28.4957 52.3635 27.9281 52.6495 27.2936 52.6495C26.153 52.6495 25.2284 51.7249 25.2284 50.5844C25.2284 50.3105 25.2817 50.0491 25.3785 49.8099M47.4298 37.1612C47.4298 38.3018 46.5052 39.2264 45.3646 39.2264C44.2239 39.2264 43.2993 38.3018 43.2993 37.1612C43.2993 36.0207 44.2239 35.0961 45.3646 35.0961C46.5052 35.0961 47.4298 36.0207 47.4298 37.1612ZM39.1688 25.2869C39.1688 26.4274 38.2442 27.352 37.1036 27.352C35.9629 27.352 35.0383 26.4274 35.0383 25.2869C35.0383 24.1464 35.9629 23.2218 37.1036 23.2218C38.2442 23.2218 39.1688 24.1464 39.1688 25.2869Z" stroke="#3A67B1"/>
<rect x="0.5" y="0.5" width="71" height="71" rx="35.5" stroke="#D8E1EF"/>
</svg>
