<svg width="72" height="72" viewBox="0 0 72 72" fill="none" xmlns="http://www.w3.org/2000/svg">
<path fill-rule="evenodd" clip-rule="evenodd" d="M34.8944 18.9189C34.5007 18.9189 34.1914 18.6146 34.1914 18.2274V15.5446C34.1914 15.1573 34.5007 14.8531 34.8944 14.8531C35.2881 14.8531 35.5974 15.1573 35.5974 15.5446V18.2551C35.5974 18.6146 35.2881 18.9189 34.8944 18.9189Z" fill="#3A67B1"/>
<path fill-rule="evenodd" clip-rule="evenodd" d="M43.6702 21.2145C43.5577 21.2145 43.4452 21.1868 43.3327 21.1592C43.0233 20.9656 42.9108 20.523 43.1077 20.2188L44.4578 17.9232C44.6547 17.6189 45.0766 17.5083 45.386 17.7019C45.7235 17.8955 45.836 18.3104 45.6391 18.6146L44.2609 20.9103C44.1484 21.1039 43.9234 21.2145 43.6702 21.2145Z" fill="#3A67B1"/>
<path fill-rule="evenodd" clip-rule="evenodd" d="M50.0839 27.5759C49.8589 27.5759 49.6057 27.4376 49.4932 27.2163C49.2963 26.9121 49.437 26.4972 49.7463 26.3036L52.109 24.9484C52.4184 24.7548 52.8684 24.8654 53.0653 25.1696C53.2622 25.5015 53.1215 25.9164 52.8121 26.11L50.4495 27.4376C50.3089 27.5206 50.1964 27.5759 50.0839 27.5759Z" fill="#3A67B1"/>
<path fill-rule="evenodd" clip-rule="evenodd" d="M55.2025 36.1776H52.418C52.0524 36.1776 51.7148 35.8734 51.7148 35.4862C51.7148 35.099 52.0524 34.7947 52.418 34.7947H55.2025C55.5963 34.7947 55.9057 35.099 55.9057 35.4862C55.9057 35.8734 55.5963 36.1776 55.2025 36.1776Z" fill="#3A67B1"/>
<path fill-rule="evenodd" clip-rule="evenodd" d="M34.8944 56.0916C34.5007 56.0916 34.1914 55.7873 34.1914 55.4001V52.6896C34.1914 52.3024 34.5007 51.9982 34.8944 51.9982C35.2881 51.9982 35.5974 52.3024 35.5974 52.6896V55.4001C35.5974 55.7873 35.2881 56.0916 34.8944 56.0916Z" fill="#3A67B1"/>
<path fill-rule="evenodd" clip-rule="evenodd" d="M24.7694 53.4087C24.6569 53.4087 24.5444 53.3811 24.4319 53.3257C24.1225 53.1598 23.9819 52.7173 24.1788 52.413L25.557 50.0621C25.7538 49.7578 26.1757 49.6472 26.4851 49.8408C26.7945 50.0344 26.9352 50.4493 26.7383 50.7535L25.3601 53.1045C25.2476 53.2981 24.9944 53.4087 24.7694 53.4087Z" fill="#3A67B1"/>
<path fill-rule="evenodd" clip-rule="evenodd" d="M17.3436 46.1069C17.1186 46.1069 16.8936 45.9963 16.753 45.775C16.5561 45.4708 16.6967 45.0283 17.0061 44.8623L19.3406 43.5071C19.65 43.3135 20.0719 43.4241 20.2688 43.7283C20.4657 44.0326 20.3532 44.4751 20.0438 44.6687L17.7093 45.9963C17.5968 46.1069 17.4561 46.1069 17.3436 46.1069Z" fill="#3A67B1"/>
<path fill-rule="evenodd" clip-rule="evenodd" d="M17.3998 36.1776H14.6153C14.2215 36.1776 13.9121 35.8734 13.9121 35.4862C13.9121 35.099 14.2215 34.7947 14.6153 34.7947H17.3998C17.7936 34.7947 18.103 35.099 18.103 35.4862C18.103 35.8734 17.7373 36.1776 17.3998 36.1776Z" fill="#3A67B1"/>
<path fill-rule="evenodd" clip-rule="evenodd" d="M19.734 27.5759C19.6215 27.5759 19.509 27.5206 19.3684 27.4929L17.0339 26.1377C16.7245 25.9441 16.612 25.5292 16.8089 25.225C17.0058 24.9207 17.4277 24.8101 17.7371 24.976L20.0716 26.3313C20.4091 26.5249 20.5216 26.9398 20.3247 27.244C20.1559 27.4376 19.9591 27.5759 19.734 27.5759Z" fill="#3A67B1"/>
<path fill-rule="evenodd" clip-rule="evenodd" d="M26.1476 21.2145C25.8945 21.2145 25.6695 21.1039 25.557 20.8826L24.1788 18.587C23.9819 18.2551 24.1225 17.8402 24.4319 17.6466C24.7413 17.453 25.1632 17.5636 25.3601 17.8955L26.7383 20.1911C26.9352 20.4954 26.7945 20.9103 26.4851 21.1039C26.3726 21.1868 26.2601 21.2145 26.1476 21.2145Z" fill="#3A67B1"/>
<path fill-rule="evenodd" clip-rule="evenodd" d="M44.4295 36.1776H34.8946C34.5008 36.1776 34.1914 35.8734 34.1914 35.4862V22.5974C34.1914 22.2102 34.5008 21.906 34.8946 21.906C35.2883 21.906 35.5977 22.2102 35.5977 22.5974V34.8224H44.4576C44.8514 34.8224 45.1608 35.1266 45.1608 35.5138C45.1608 35.9011 44.8232 36.1776 44.4295 36.1776Z" fill="#3A67B1"/>
<path fill-rule="evenodd" clip-rule="evenodd" d="M34.895 58C22.2662 58 12 47.8771 12 35.4862C12 23.0676 22.2662 13 34.895 13C47.4957 13 57.79 23.0953 57.79 35.4862C57.79 36.5095 57.7056 37.5882 57.5369 38.6945C57.5088 39.0817 57.1712 39.3307 56.7775 39.2754C56.4118 39.2477 56.1868 38.9435 56.1868 38.6392C56.1868 38.5839 56.1868 38.5562 56.1868 38.5562C56.3274 37.4776 56.4118 36.4819 56.4118 35.4862C56.4118 23.7867 46.7644 14.3553 34.895 14.3553C23.0256 14.3553 13.3782 23.842 13.3782 35.4862C13.3782 47.158 23.0256 56.6447 34.895 56.6447C38.1296 56.6447 41.3079 55.9533 44.233 54.5704C44.5705 54.4044 44.9643 54.5704 45.1331 54.8746C45.2737 55.2342 45.1331 55.5937 44.8237 55.7597C41.7016 57.2532 38.3546 58 34.895 58Z" fill="#3A67B1"/>
<path fill-rule="evenodd" clip-rule="evenodd" d="M49.7732 58C49.7451 58 49.7451 58 49.6889 58C46.8481 57.7234 44.5698 56.5341 42.8541 54.4597C38.4101 48.9557 39.6477 39.2477 39.7039 38.8052C39.7321 38.5009 40.0133 38.2796 40.3227 38.252C47.5512 37.6158 49.0982 35.1819 49.1545 35.0989C49.1826 35.016 49.2388 34.9883 49.267 34.933C49.3513 34.85 49.3795 34.8224 49.4638 34.7947C49.5482 34.7394 49.6607 34.7117 49.7451 34.7117C49.8014 34.7117 49.942 34.7117 49.9983 34.7394C50.0826 34.7947 50.167 34.8224 50.1951 34.9053C50.2514 34.933 50.2795 34.9883 50.3076 35.0436C50.3639 35.1266 51.9952 37.6158 59.1956 38.1967C59.505 38.252 59.7863 38.4733 59.8144 38.7775C59.8425 39.1924 61.1082 48.9281 56.608 54.4044C54.9204 56.4788 52.614 57.6681 49.7732 57.9447C49.8014 58 49.8014 58 49.7732 58ZM41.0259 39.4966C40.829 41.571 40.4352 49.26 43.951 53.6023C45.3855 55.3725 47.3544 56.4235 49.7732 56.6447C52.1921 56.4235 54.1891 55.3725 55.6236 53.6023C59.1394 49.26 58.7456 41.571 58.605 39.4966C53.2047 38.9711 50.7858 37.3669 49.8014 36.4265C48.7888 37.3946 46.3699 38.9711 41.0259 39.4966Z" fill="#3A67B1"/>
<path fill-rule="evenodd" clip-rule="evenodd" d="M49.7743 54.7087C49.7461 54.7087 49.7461 54.7087 49.6899 54.7087C47.6648 54.5427 45.9772 53.6853 44.7677 52.1365C41.5613 48.2366 42.4614 41.3221 42.5176 41.0178C42.5457 40.7136 42.827 40.4647 43.1364 40.437C47.9742 40.0498 49.0992 38.3903 49.1836 38.3073C49.268 38.1967 49.3524 38.1137 49.4649 38.0584C49.7743 37.8648 50.1962 37.9754 50.3931 38.3073C50.4493 38.3903 51.5744 40.0221 56.4684 40.437C56.7778 40.4647 57.0309 40.7136 57.0872 41.0178C57.1153 41.3221 58.0154 48.2366 54.8089 52.1365C53.5995 53.6577 51.9119 54.5427 49.8587 54.7087C49.8024 54.7087 49.8024 54.7087 49.7743 54.7087ZM43.8114 41.7369C43.6708 43.3964 43.4739 48.4579 45.8366 51.3344C46.7929 52.5237 48.1429 53.2151 49.7743 53.3811C51.4056 53.2151 52.7557 52.5237 53.712 51.3067C56.0746 48.4302 55.8777 43.3411 55.7652 41.7093C52.2775 41.3221 50.5618 40.3264 49.7743 39.6349C48.9867 40.354 47.271 41.3497 43.8114 41.7369Z" fill="#3A67B1"/>
<rect x="0.5" y="0.5" width="71" height="71" rx="35.5" stroke="#D8E1EF"/>
</svg>
