<svg  viewBox="0 0 72 72" fill="none" xmlns="http://www.w3.org/2000/svg">
<path d="M32.1144 20.7204H32.3216L32.4681 20.5738L36.3318 16.7073L40.1959 20.5738L40.3424 20.7204H40.5496H46.9381H47.1451L47.2916 20.574L48.8443 19.0223L50.7715 20.9508L48.8443 22.8814L47.4133 21.4494L47.2668 21.3028H47.0596H40.4278H40.2206L40.0741 21.4494L37.3269 24.1985L37.1805 24.345V24.552V43.1481V43.1609L37.1812 43.1736C37.2981 45.4605 37.8529 47.6761 38.6205 49.5004C39.3815 51.3091 40.3778 52.7946 41.42 53.5587L41.4926 53.6119L41.5792 53.6364C43.1992 54.0962 44.5221 54.7484 45.4412 55.5H27.2245C28.1576 54.734 29.502 54.0714 31.1515 53.6106L31.2385 53.5864L31.3114 53.5332C32.4414 52.7103 33.4734 51.0931 34.2213 49.1294C34.9246 47.2831 35.3996 45.0713 35.4608 42.7856H35.486V42.2856V24.5546V24.3476L35.3397 24.2012L32.5896 21.4493L32.4432 21.3027H32.2359H25.4852H25.2778L25.1313 21.4495L23.7026 22.8811L21.7736 20.9507L23.7025 19.0224L25.2529 20.5738L25.3993 20.7204H25.6066H32.1144ZM52.0242 30.5873C52.6498 30.5923 53.3126 30.7343 54.0236 31.0512C52.3913 31.6088 50.9877 32.7922 49.7176 33.8631L49.6576 33.9137C48.5172 34.875 47.4838 35.7403 46.4131 36.1925C45.7337 36.4794 45.0442 36.5976 44.3025 36.4403C45.0321 36.1192 45.6082 35.7257 46.084 35.2912C46.7985 34.6386 47.2695 33.9072 47.6812 33.2676L47.6922 33.2506C48.2 32.4619 48.6071 31.8441 49.265 31.4395L49.0031 31.0136L49.2651 31.4395C50.1735 30.8808 51.082 30.5799 52.0242 30.5873ZM41.6683 34.2603C41.6139 34.4076 41.575 34.5565 41.5508 34.7061C41.464 34.5054 41.4586 34.3321 41.4939 34.209C41.5364 34.0603 41.6686 33.8769 41.9373 33.7308C41.8262 33.8996 41.7361 34.0763 41.6683 34.2603ZM24.0095 40.9495C21.8472 40.9495 19.9127 40.5856 18.5374 40.0162C17.8486 39.7311 17.3239 39.4043 16.9792 39.067C16.8272 38.9183 16.7159 38.7736 16.6389 38.6341L31.3776 38.634C31.3007 38.7736 31.1894 38.9183 31.0375 39.067C30.693 39.4043 30.1687 39.7311 29.4802 40.0162C28.1056 40.5856 26.1718 40.9495 24.0095 40.9495ZM47.9931 40.9495C45.8308 40.9495 43.8963 40.5856 42.521 40.0162C41.8322 39.7311 41.3075 39.4043 40.9628 39.067C40.8108 38.9183 40.6995 38.7736 40.6226 38.6341L55.3612 38.634C55.2843 38.7736 55.173 38.9183 55.0211 39.067C54.6766 39.4043 54.1523 39.7311 53.4638 40.0162C52.0892 40.5856 50.1554 40.9495 47.9931 40.9495Z" stroke="#3A67B1"/>
<path d="M23.5711 26.98C23.0678 26.4032 22.3864 26.0793 21.6762 26.0793C20.966 26.0793 20.2846 26.4032 19.7812 26.98C19.2808 27.5607 19 28.3456 19 29.1636C19 29.9816 19.2808 30.7665 19.7812 31.3472L23.7215 35.8836C23.7532 35.9205 23.791 35.9498 23.8327 35.9697C23.8743 35.9897 23.919 36 23.9641 36C24.0092 36 24.0539 35.9897 24.0955 35.9697C24.1372 35.9498 24.175 35.9205 24.2068 35.8836L28.147 31.3472C28.4103 31.0645 28.6215 30.7236 28.768 30.345C28.9145 29.9663 28.9932 29.5575 28.9996 29.1431C29.0059 28.7286 28.9398 28.3169 28.805 27.9325C28.6703 27.5481 28.4696 27.1988 28.2152 26.9056C27.9607 26.6123 27.6575 26.3811 27.3237 26.2256C26.99 26.07 26.6324 25.9935 26.2724 26.0004C25.9124 26.0074 25.5573 26.0977 25.2282 26.266C24.8992 26.4343 24.6029 26.6771 24.3571 26.98C24.3057 27.0398 24.2444 27.0871 24.177 27.1195C24.1095 27.1518 24.0372 27.1685 23.9641 27.1685C23.891 27.1685 23.8187 27.1518 23.7513 27.1195C23.6838 27.0871 23.6226 27.0398 23.5711 26.98ZM24.839 27.5387C25.0243 27.3253 25.2443 27.156 25.4865 27.0405C25.7287 26.925 25.9882 26.8655 26.2504 26.8655C26.5125 26.8655 26.772 26.925 27.0142 27.0405C27.2564 27.156 27.4764 27.3253 27.6617 27.5387C27.8479 27.7516 27.9957 28.0047 28.0965 28.2836C28.1974 28.5625 28.2493 28.8615 28.2493 29.1636C28.2493 29.4657 28.1974 29.7648 28.0965 30.0437C27.9957 30.3226 27.8479 30.5757 27.6617 30.7885L23.9641 35.0495L20.2631 30.7885C19.8904 30.3566 19.6812 29.7725 19.6812 29.1636C19.6812 28.5548 19.8904 27.9706 20.2631 27.5387C20.638 27.1075 21.1462 26.8652 21.6762 26.8652C22.2061 26.8652 22.7144 27.1075 23.0893 27.5387C23.3247 27.7984 23.6381 27.9434 23.9641 27.9434C24.2901 27.9434 24.6036 27.7984 24.839 27.5387Z" fill="#3A67B1"/>
<rect x="0.5" y="0.5" width="71" height="71" rx="35.5" stroke="#D8E1EF"/>
</svg>
