<svg  viewBox="0 0 72 72" fill="none" xmlns="http://www.w3.org/2000/svg">
<mask id="path-2-inside-1_1811_27123" fill="white">
<path d="M39.1514 20.8994H37.8896V22.1596H39.1514V20.8994Z"/>
<path d="M25.0865 48.8081L24.1943 49.6992L25.4559 50.9592L26.3481 50.0681L25.0865 48.8081Z"/>
<path d="M47.7987 39.9867C47.6775 39.8651 47.5034 39.7914 47.34 39.8021C47.1684 39.8059 47.0056 39.879 46.8889 40.005L46.8208 40.1783L46.2757 39.5412V37.9118C46.2757 37.7448 46.2095 37.5842 46.0909 37.4663L42.4905 33.8704V29.7206C42.4905 29.5536 42.4242 29.3929 42.3056 29.2751L41.2287 28.1995V27.2002C41.2287 27.2002 41.8596 26.9179 41.8596 26.5701V16H40.5978V23.235H31.7656V16L30.3931 16L30.5038 24.0497V26.5701C30.5038 26.9179 30.5038 27.2002 31.1347 27.2002V28.1995L28.7961 30.5353C28.6774 30.6531 28.6112 30.8138 28.6112 30.9808V32.6102L25.6417 35.576C25.5231 35.6939 25.4568 35.8545 25.4568 36.0215V39.5412L24.7338 40.1713L24.5029 39.9867C24.2563 39.7403 23.8342 39.7403 23.5875 39.9867L21.6836 41.877L16 47.5479L16.8889 48.4388L22.1195 43.2134L28.7967 49.8836L23.5642 55.109L24.4563 56L32.0268 48.4388C32.2734 48.1925 32.2734 47.7942 32.0268 47.5479L31.8419 47.3633L32.5069 46.6991C32.616 46.7187 32.7277 46.7332 32.8425 46.7332C33.0917 46.7332 33.3283 46.6821 33.5465 46.5945C33.7648 47.3979 34.4935 47.9934 35.366 47.9934C36.0379 47.9934 36.6258 47.5466 36.9615 47.018C37.2372 47.1742 37.5507 47.1786 37.8895 47.1786H38.8901L39.5134 47.8932L39.3191 48.1496C39.0894 48.3985 39.097 48.8062 39.3367 49.0456L41.2293 50.9473L46.2764 55.9937L47.1684 55.1059L42.5504 50.4942L49.2642 43.2305L55.108 49.0689L56 48.178L47.7987 39.9867ZM40.5978 24.4952V25.7554H31.7656V24.4952H40.5978ZM29.6881 48.9927L23.0097 42.3225L24.0102 41.3232L30.6887 47.9934L29.6881 48.9927ZM25.5332 41.0623L26.441 40.2476C26.5596 40.1298 26.7186 39.9691 26.7186 39.8021V36.2824L28.6112 34.3921V35.3914C28.6112 35.5584 28.6774 35.7191 28.7961 35.8369L31.1347 38.1727V44.8429C31.1347 45.2978 31.2104 45.7093 31.4792 46.0363L30.9959 46.4723L25.5332 41.0623ZM37.4435 45.473V35.8369H36.1817V46.1031C36.1817 46.4503 35.8984 46.7332 35.5508 46.7332C35.2032 46.7332 34.92 46.4503 34.92 46.1031V35.8369H33.6582V44.8429C33.6582 45.1901 33.3749 45.473 33.0273 45.473C32.6797 45.473 32.3965 45.1901 32.3965 44.8429V34.5767H31.1347V36.3908L29.873 35.1306V31.2416L32.2116 28.9058C32.3302 28.788 32.3965 28.6273 32.3965 28.4604V27.0156H39.967V28.4604C39.967 28.6273 40.0332 28.788 40.1518 28.9058L41.2287 29.9814V42.3225C41.2287 42.6697 40.9455 42.9526 40.5978 42.9526C40.2502 42.9526 39.967 42.6697 39.967 42.3225V35.8369H38.7052V45.473C38.7052 45.8202 38.422 46.1031 38.0743 46.1031C37.7267 46.1031 37.4435 45.8202 37.4435 45.473ZM39.5973 46.2877C39.5954 46.2858 39.6856 46.2858 39.6843 46.2839C39.8029 46.0375 39.967 45.7647 39.967 45.473V44.0968C39.967 44.1674 40.3758 44.2128 40.5978 44.2128C41.6413 44.2128 42.4905 43.3647 42.4905 42.3225V35.6523L45.014 38.1727V39.8021C45.014 39.9691 44.9881 40.1298 45.1061 40.2476L45.8959 41.0831L43.1169 44.1107L40.3802 47.0589L39.5973 46.2877ZM40.7272 48.5296C40.7814 48.4974 40.8363 48.4647 40.8792 48.4174L44.0374 44.9475L47.3703 41.3414L48.3696 42.3401L41.6558 49.6045L40.6565 48.6058L40.7272 48.5296Z"/>
<path d="M49.4295 45.6576L48.168 46.9176L49.0602 47.8086L50.3217 46.5487L49.4295 45.6576Z"/>
<path d="M35.9969 53.0342C33.8898 53.0342 31.8451 52.6266 29.919 51.8219L29.4326 52.9851C31.5132 53.854 33.7219 54.2944 35.9969 54.2944C37.786 54.2944 39.5493 54.0185 41.2376 53.4741L40.8502 52.2743C39.2875 52.7784 37.6542 53.0342 35.9969 53.0342Z"/>
<path d="M51.7684 37.2817C51.7684 38.7581 51.5646 40.2186 51.1621 41.6231L52.3753 41.9703C52.81 40.453 53.0308 38.8753 53.0308 37.2824C53.0308 30.7035 49.1736 24.6508 43.2043 21.8633L42.6699 23.005C48.1964 25.5859 51.7684 31.19 51.7684 37.2817Z"/>
<path d="M20.8041 41.5231C20.4199 40.1495 20.2256 38.7223 20.2256 37.2819C20.2256 31.1901 23.7976 25.586 29.3247 23.0045L28.7904 21.8628C22.821 24.6503 18.9639 30.703 18.9639 37.2819C18.9639 38.837 19.1739 40.3776 19.5884 41.8614L20.8041 41.5231Z"/>
</mask>
<path d="M39.1514 20.8994H37.8896V22.1596H39.1514V20.8994Z" stroke="#3A67B1" stroke-width="4" mask="url(#path-2-inside-1_1811_27123)"/>
<path d="M25.0865 48.8081L24.1943 49.6992L25.4559 50.9592L26.3481 50.0681L25.0865 48.8081Z" stroke="#3A67B1" stroke-width="4" mask="url(#path-2-inside-1_1811_27123)"/>
<path d="M47.7987 39.9867C47.6775 39.8651 47.5034 39.7914 47.34 39.8021C47.1684 39.8059 47.0056 39.879 46.8889 40.005L46.8208 40.1783L46.2757 39.5412V37.9118C46.2757 37.7448 46.2095 37.5842 46.0909 37.4663L42.4905 33.8704V29.7206C42.4905 29.5536 42.4242 29.3929 42.3056 29.2751L41.2287 28.1995V27.2002C41.2287 27.2002 41.8596 26.9179 41.8596 26.5701V16H40.5978V23.235H31.7656V16L30.3931 16L30.5038 24.0497V26.5701C30.5038 26.9179 30.5038 27.2002 31.1347 27.2002V28.1995L28.7961 30.5353C28.6774 30.6531 28.6112 30.8138 28.6112 30.9808V32.6102L25.6417 35.576C25.5231 35.6939 25.4568 35.8545 25.4568 36.0215V39.5412L24.7338 40.1713L24.5029 39.9867C24.2563 39.7403 23.8342 39.7403 23.5875 39.9867L21.6836 41.877L16 47.5479L16.8889 48.4388L22.1195 43.2134L28.7967 49.8836L23.5642 55.109L24.4563 56L32.0268 48.4388C32.2734 48.1925 32.2734 47.7942 32.0268 47.5479L31.8419 47.3633L32.5069 46.6991C32.616 46.7187 32.7277 46.7332 32.8425 46.7332C33.0917 46.7332 33.3283 46.6821 33.5465 46.5945C33.7648 47.3979 34.4935 47.9934 35.366 47.9934C36.0379 47.9934 36.6258 47.5466 36.9615 47.018C37.2372 47.1742 37.5507 47.1786 37.8895 47.1786H38.8901L39.5134 47.8932L39.3191 48.1496C39.0894 48.3985 39.097 48.8062 39.3367 49.0456L41.2293 50.9473L46.2764 55.9937L47.1684 55.1059L42.5504 50.4942L49.2642 43.2305L55.108 49.0689L56 48.178L47.7987 39.9867ZM40.5978 24.4952V25.7554H31.7656V24.4952H40.5978ZM29.6881 48.9927L23.0097 42.3225L24.0102 41.3232L30.6887 47.9934L29.6881 48.9927ZM25.5332 41.0623L26.441 40.2476C26.5596 40.1298 26.7186 39.9691 26.7186 39.8021V36.2824L28.6112 34.3921V35.3914C28.6112 35.5584 28.6774 35.7191 28.7961 35.8369L31.1347 38.1727V44.8429C31.1347 45.2978 31.2104 45.7093 31.4792 46.0363L30.9959 46.4723L25.5332 41.0623ZM37.4435 45.473V35.8369H36.1817V46.1031C36.1817 46.4503 35.8984 46.7332 35.5508 46.7332C35.2032 46.7332 34.92 46.4503 34.92 46.1031V35.8369H33.6582V44.8429C33.6582 45.1901 33.3749 45.473 33.0273 45.473C32.6797 45.473 32.3965 45.1901 32.3965 44.8429V34.5767H31.1347V36.3908L29.873 35.1306V31.2416L32.2116 28.9058C32.3302 28.788 32.3965 28.6273 32.3965 28.4604V27.0156H39.967V28.4604C39.967 28.6273 40.0332 28.788 40.1518 28.9058L41.2287 29.9814V42.3225C41.2287 42.6697 40.9455 42.9526 40.5978 42.9526C40.2502 42.9526 39.967 42.6697 39.967 42.3225V35.8369H38.7052V45.473C38.7052 45.8202 38.422 46.1031 38.0743 46.1031C37.7267 46.1031 37.4435 45.8202 37.4435 45.473ZM39.5973 46.2877C39.5954 46.2858 39.6856 46.2858 39.6843 46.2839C39.8029 46.0375 39.967 45.7647 39.967 45.473V44.0968C39.967 44.1674 40.3758 44.2128 40.5978 44.2128C41.6413 44.2128 42.4905 43.3647 42.4905 42.3225V35.6523L45.014 38.1727V39.8021C45.014 39.9691 44.9881 40.1298 45.1061 40.2476L45.8959 41.0831L43.1169 44.1107L40.3802 47.0589L39.5973 46.2877ZM40.7272 48.5296C40.7814 48.4974 40.8363 48.4647 40.8792 48.4174L44.0374 44.9475L47.3703 41.3414L48.3696 42.3401L41.6558 49.6045L40.6565 48.6058L40.7272 48.5296Z" stroke="#3A67B1" stroke-width="4" mask="url(#path-2-inside-1_1811_27123)"/>
<path d="M49.4295 45.6576L48.168 46.9176L49.0602 47.8086L50.3217 46.5487L49.4295 45.6576Z" stroke="#3A67B1" stroke-width="4" mask="url(#path-2-inside-1_1811_27123)"/>
<path d="M35.9969 53.0342C33.8898 53.0342 31.8451 52.6266 29.919 51.8219L29.4326 52.9851C31.5132 53.854 33.7219 54.2944 35.9969 54.2944C37.786 54.2944 39.5493 54.0185 41.2376 53.4741L40.8502 52.2743C39.2875 52.7784 37.6542 53.0342 35.9969 53.0342Z" stroke="#3A67B1" stroke-width="4" mask="url(#path-2-inside-1_1811_27123)"/>
<path d="M51.7684 37.2817C51.7684 38.7581 51.5646 40.2186 51.1621 41.6231L52.3753 41.9703C52.81 40.453 53.0308 38.8753 53.0308 37.2824C53.0308 30.7035 49.1736 24.6508 43.2043 21.8633L42.6699 23.005C48.1964 25.5859 51.7684 31.19 51.7684 37.2817Z" stroke="#3A67B1" stroke-width="4" mask="url(#path-2-inside-1_1811_27123)"/>
<path d="M20.8041 41.5231C20.4199 40.1495 20.2256 38.7223 20.2256 37.2819C20.2256 31.1901 23.7976 25.586 29.3247 23.0045L28.7904 21.8628C22.821 24.6503 18.9639 30.703 18.9639 37.2819C18.9639 38.837 19.1739 40.3776 19.5884 41.8614L20.8041 41.5231Z" stroke="#3A67B1" stroke-width="4" mask="url(#path-2-inside-1_1811_27123)"/>
<rect x="0.5" y="0.5" width="71" height="71" rx="35.5" stroke="#D8E1EF"/>
</svg>
