<svg  viewBox="0 0 20 18" fill="none" xmlns="http://www.w3.org/2000/svg">
<path d="M1.88413 8.01647C1.88413 8.01647 10.0664 4.66872 12.9041 3.48997C13.9919 3.01847 17.681 1.5096 17.681 1.5096C17.681 1.5096 19.3836 0.849596 19.2418 2.4526C19.1944 3.11272 18.816 5.4231 18.4376 7.9221C17.8701 11.4585 17.2553 15.3247 17.2553 15.3247C17.2553 15.3247 17.1608 16.4092 16.3568 16.5978C15.5526 16.7865 14.2284 15.9377 13.9919 15.7491C13.8028 15.6076 10.4448 13.4858 9.21513 12.4486C8.884 12.1657 8.50563 11.5998 9.26238 10.9397C10.965 9.38385 12.9988 7.4506 14.2284 6.22472C14.7959 5.65885 15.3635 4.3386 12.9988 5.94172C9.64075 8.2521 6.33 10.4211 6.33 10.4211C6.33 10.4211 5.57338 10.8926 4.1545 10.4682C2.73563 10.0438 1.08025 9.4781 1.08025 9.4781C1.08025 9.4781 -0.0549988 8.77072 1.88413 8.01647Z" stroke="white"/>
</svg>
