<svg  viewBox="0 0 72 72" fill="none" xmlns="http://www.w3.org/2000/svg">
<path d="M35.7104 29.3365C35.8021 29.3785 35.9018 29.4002 36.0026 29.4002C36.1035 29.4002 36.2031 29.3785 36.2948 29.3365C37.5403 28.771 38.6474 27.9403 39.5385 26.9025C40.8287 25.3843 41.5108 23.5638 41.5108 21.6379V18.5189C41.5108 18.3396 41.4423 18.1671 41.3193 18.0366C41.1963 17.9061 41.0281 17.8276 40.8492 17.817C39.6715 17.7542 38.5244 17.4192 37.498 16.8383C37.1306 16.6251 36.7837 16.3783 36.4618 16.1011C36.3341 15.991 36.1712 15.9304 36.0026 15.9304C35.834 15.9304 35.6711 15.991 35.5434 16.1011C35.2216 16.3784 34.8747 16.6251 34.5073 16.8382C33.4809 17.4191 32.3338 17.7541 31.1561 17.817C30.9771 17.8275 30.809 17.9061 30.686 18.0365C30.563 18.167 30.4945 18.3396 30.4945 18.5189V21.6379C30.4945 23.5639 31.1767 25.3846 32.4671 26.9027C33.3581 27.9404 34.465 28.7711 35.7104 29.3365ZM31.9006 19.1586C33.067 19.0133 34.1929 18.638 35.2132 18.0544C35.486 17.8961 35.7496 17.7224 36.0027 17.5341C36.2557 17.7224 36.5193 17.8961 36.7921 18.0544C37.8124 18.6381 38.9384 19.0134 40.1048 19.1586V21.6379C40.1048 23.2257 39.5385 24.7312 38.4669 25.992C37.7812 26.7907 36.9435 27.445 36.0027 27.917C35.0619 27.4451 34.2243 26.7908 33.5386 25.9923C32.467 24.7314 31.9006 23.2258 31.9006 21.6379V19.1586ZM59.7942 34.0151C59.7289 33.9498 59.6514 33.898 59.566 33.8627C59.4807 33.8273 59.3893 33.8091 59.297 33.8091C59.2046 33.8091 59.1132 33.8273 59.0279 33.8627C58.9426 33.898 58.8651 33.9498 58.7998 34.0151L54.7352 38.0801L45.0945 28.2351C45.8478 27.0107 46.3441 25.6458 46.5532 24.2235L49.2933 21.4637C49.3583 21.3981 49.4098 21.3204 49.4449 21.235C49.4799 21.1496 49.4978 21.0581 49.4974 20.9657C49.4971 20.8734 49.4786 20.782 49.443 20.6968C49.4074 20.6116 49.3553 20.5343 49.2898 20.4692C49.2243 20.4042 49.1466 20.3527 49.0612 20.3176C48.9757 20.2826 48.8842 20.2647 48.7919 20.265C48.6996 20.2653 48.6082 20.2839 48.523 20.3195C48.4379 20.3551 48.3605 20.4072 48.2955 20.4727L46.6541 22.126C46.5148 19.378 45.3191 16.7901 43.3167 14.9032C41.3143 13.0162 38.6603 11.9762 35.9091 12.0004C33.158 12.0246 30.5227 13.1112 28.5538 15.0331C26.585 16.955 25.435 19.5636 25.3441 22.3136L23.437 20.4635C23.3029 20.3355 23.1235 20.2657 22.9382 20.2693C22.7528 20.2729 22.5763 20.3496 22.4472 20.4827C22.3181 20.6158 22.2468 20.7946 22.2488 20.98C22.2508 21.1655 22.326 21.3426 22.458 21.4728L25.4814 24.4061C25.7098 25.7914 26.211 27.1175 26.956 28.3075L17.3288 38.1389L13.2054 34.0151C13.1404 33.9487 13.0629 33.8958 12.9773 33.8596C12.8917 33.8233 12.7997 33.8044 12.7068 33.8039C12.6138 33.8034 12.5217 33.8213 12.4357 33.8567C12.3498 33.892 12.2716 33.9441 12.2059 34.0098C12.1402 34.0755 12.0881 34.1537 12.0528 34.2397C12.0175 34.3256 11.9995 34.4178 12 34.5107C12.0005 34.6037 12.0194 34.6956 12.0557 34.7813C12.0919 34.8669 12.1448 34.9444 12.2112 35.0094L16.7128 39.5116C16.7726 39.6147 16.8582 39.7003 16.9613 39.7601L17.5805 40.3793C17.906 40.7069 18.2933 40.9667 18.72 41.1435C19.1466 41.3204 19.6041 41.4108 20.066 41.4095C20.3931 41.4096 20.7186 41.3641 21.0332 41.2745C21.051 41.7519 21.1029 42.2274 21.1885 42.6974C20.8609 42.8479 20.5628 43.0555 20.3081 43.3106L18.7647 44.8542C18.3386 45.2803 18.0485 45.8232 17.9309 46.4142C17.8134 47.0053 17.8737 47.6179 18.1043 48.1747C18.3349 48.7314 18.7254 49.2073 19.2264 49.5421C19.7273 49.8769 20.3164 50.0556 20.9189 50.0556C21.0138 50.0556 21.1079 50.0508 21.2011 50.0423C21.1617 50.4643 21.2108 50.8898 21.3453 51.2916C21.4797 51.6935 21.6966 52.0629 21.982 52.3761C22.2674 52.6894 22.615 52.9396 23.0026 53.1107C23.3903 53.2819 23.8093 53.3703 24.2331 53.3702C24.3275 53.3702 24.4211 53.3655 24.5139 53.357C24.5055 53.4499 24.5008 53.5434 24.5008 53.6377C24.5006 54.0378 24.5794 54.434 24.7324 54.8037C24.8855 55.1733 25.1099 55.5092 25.3929 55.792C25.6758 56.0749 26.0117 56.2992 26.3814 56.4521C26.7511 56.605 27.1473 56.6835 27.5473 56.6832C27.6411 56.6832 27.7347 56.6788 27.8283 56.6701C27.8197 56.7634 27.815 56.8576 27.815 56.9524C27.8139 57.3526 27.8922 57.7492 28.0454 58.119C28.1986 58.4888 28.4236 58.8245 28.7074 59.1068C29.2792 59.6772 30.0539 59.9977 30.8615 59.9977C31.6692 59.9977 32.4439 59.6773 33.0157 59.1068L34.0309 58.0915L35.0461 59.107C35.489 59.5504 36.058 59.8463 36.6752 59.9544C37.2925 60.0625 37.9281 59.9774 38.4953 59.7109C39.0624 59.4443 39.5336 59.0093 39.8444 58.4651C40.1552 57.9209 40.2906 57.294 40.232 56.67C40.3259 56.6787 40.4201 56.6831 40.5145 56.6831C40.9146 56.6834 41.3107 56.6049 41.6804 56.452C42.05 56.2991 42.3859 56.0748 42.6689 55.792C42.9518 55.5091 43.1762 55.1733 43.3293 54.8037C43.4824 54.4341 43.5612 54.0379 43.5611 53.6378C43.5611 53.5434 43.5564 53.4499 43.5479 53.357C43.6407 53.3655 43.7343 53.3702 43.8286 53.3702C44.6366 53.3701 45.4115 53.0491 45.9828 52.4777C46.5542 51.9063 46.8752 51.1313 46.8752 50.3232C46.8752 50.2288 46.8705 50.1352 46.8621 50.0423C46.9549 50.0508 47.0485 50.0554 47.1429 50.0554C47.7454 50.0554 48.3344 49.8767 48.8354 49.5419C49.3363 49.2071 49.7268 48.7313 49.9574 48.1746C50.188 47.6178 50.2483 47.0052 50.1308 46.4142C50.0133 45.8232 49.7231 45.2803 49.2971 44.8542L48.445 44.002C49.4356 43.2483 50.2813 42.3213 50.9413 41.2659C51.2654 41.3613 51.6015 41.4097 51.9393 41.4095C52.4011 41.4108 52.8586 41.3204 53.2852 41.1436C53.7118 40.9668 54.0991 40.7071 54.4247 40.3796L59.7941 35.0095C59.8594 34.9443 59.9111 34.8667 59.9465 34.7814C59.9818 34.6961 60 34.6047 60 34.5123C60 34.42 59.9818 34.3286 59.9465 34.2433C59.9111 34.1579 59.8594 34.0804 59.7942 34.0151ZM26.8394 23.9938C26.8385 23.9837 26.8366 23.9736 26.8352 23.9636C26.6227 22.471 26.7779 20.949 27.2872 19.53C27.7965 18.1109 28.6445 16.8377 29.7576 15.8209C30.8707 14.8042 32.2152 14.0745 33.6743 13.6955C35.1334 13.3165 36.6629 13.2994 38.1301 13.6459C39.5973 13.9924 40.9577 14.6919 42.0931 15.6837C43.2285 16.6754 44.1047 17.9295 44.6454 19.3368C45.1862 20.7442 45.3752 22.2623 45.196 23.7593C45.0168 25.2563 44.4748 26.6869 43.6172 27.9268L43.6125 27.9335C42.5548 29.4631 41.061 30.6386 39.3256 31.3069C37.5903 31.9751 35.6939 32.1051 33.8836 31.6799C32.0733 31.2547 30.4331 30.2941 29.1766 28.9231C27.9201 27.5521 27.1057 25.8344 26.8394 23.9938ZM20.066 40.0032C19.7889 40.004 19.5144 39.9498 19.2585 39.8436C19.0025 39.7375 18.7701 39.5817 18.5749 39.3851L18.3232 39.1333L27.7914 29.4642C28.3483 30.1356 28.9848 30.7367 29.6868 31.2544L21.5563 39.3858C21.3611 39.5822 21.1288 39.7379 20.873 39.8438C20.6172 39.9498 20.3429 40.004 20.066 40.0032ZM22.0788 48.1688C21.9265 48.3212 21.7457 48.442 21.5467 48.5245C21.3476 48.6069 21.1343 48.6494 20.9189 48.6494C20.7035 48.6494 20.4902 48.6069 20.2911 48.5245C20.0921 48.442 19.9113 48.3212 19.759 48.1688C19.4514 47.8611 19.2785 47.4438 19.2785 47.0086C19.2785 46.5735 19.4514 46.1563 19.759 45.8486L21.3023 44.3051C21.4544 44.1516 21.6353 44.0297 21.8346 43.9464C22.0339 43.8631 22.2477 43.8199 22.4637 43.8194C22.6798 43.819 22.8938 43.8612 23.0934 43.9436C23.2931 44.0261 23.4746 44.1472 23.6273 44.2999C23.7801 44.4527 23.9012 44.6342 23.9836 44.8339C24.0661 45.0336 24.1083 45.2476 24.1078 45.4636C24.1073 45.6797 24.0642 45.8935 23.9809 46.0928C23.8976 46.2922 23.7757 46.4731 23.6223 46.6252L22.0788 48.1688ZM24.2331 51.9639C24.0176 51.9645 23.8041 51.9223 23.605 51.8398C23.4059 51.7573 23.2251 51.6362 23.0731 51.4834V51.4833C22.766 51.1753 22.5935 50.7581 22.5935 50.3232C22.5935 49.8882 22.766 49.471 23.0731 49.1631L24.6165 47.6195C24.9241 47.3118 25.3414 47.139 25.7765 47.139C26.2116 47.139 26.6289 47.3118 26.9365 47.6195C27.2442 47.9272 27.417 48.3445 27.417 48.7797C27.417 49.2148 27.2442 49.6322 26.9365 49.9398L25.3931 51.4834C25.2411 51.6362 25.0603 51.7573 24.8612 51.8398C24.6621 51.9223 24.4486 51.9645 24.2331 51.9639ZM26.3873 54.7979C26.0797 54.4902 25.9069 54.0729 25.9069 53.6378C25.9069 53.2027 26.0797 52.7854 26.3873 52.4778L27.9307 50.9342C28.2384 50.6265 28.6556 50.4536 29.0907 50.4536C29.5258 50.4536 29.943 50.6265 30.2507 50.9342C30.5583 51.2418 30.7312 51.6592 30.7312 52.0943C30.7312 52.5294 30.5583 52.9467 30.2507 53.2544L28.7073 54.7979C28.3994 55.1052 27.9822 55.2777 27.5473 55.2777C27.1123 55.2777 26.6952 55.1052 26.3873 54.7979ZM33.565 56.5688L32.0215 58.1124C31.7137 58.4197 31.2965 58.5923 30.8615 58.5923C30.4265 58.5923 30.0093 58.4197 29.7015 58.1124V58.1125C29.5491 57.9602 29.4283 57.7793 29.3459 57.5803C29.2634 57.3812 29.221 57.1679 29.221 56.9524C29.221 56.737 29.2634 56.5236 29.3459 56.3246C29.4283 56.1255 29.5491 55.9447 29.7015 55.7923L31.2449 54.2487C31.5525 53.941 31.9698 53.7681 32.4049 53.7681C32.8399 53.7681 33.2572 53.9409 33.5649 54.2486C33.8725 54.5563 34.0454 54.9736 34.0454 55.4087C34.0454 55.8438 33.8726 56.2611 33.565 56.5688ZM48.7834 47.0086C48.7834 47.3331 48.6872 47.6504 48.5069 47.9202C48.3267 48.19 48.0705 48.4003 47.7707 48.5244C47.4709 48.6486 47.1411 48.6811 46.8229 48.6178C46.5046 48.5545 46.2123 48.3982 45.9829 48.1687L40.9454 43.1306C40.8801 43.0653 40.8026 43.0135 40.7173 42.9781C40.632 42.9428 40.5405 42.9246 40.4482 42.9246C40.3559 42.9246 40.2644 42.9428 40.1791 42.9781C40.0938 43.0134 40.0163 43.0652 39.951 43.1305C39.8857 43.1958 39.8339 43.2733 39.7986 43.3586C39.7632 43.444 39.7451 43.5354 39.7451 43.6277C39.7451 43.7201 39.7632 43.8115 39.7986 43.8968C39.8339 43.9822 39.8857 44.0597 39.951 44.125L44.9885 49.1631C45.1428 49.315 45.2655 49.496 45.3495 49.6955C45.4335 49.8951 45.4772 50.1093 45.478 50.3258C45.4788 50.5423 45.4368 50.7569 45.3543 50.9571C45.2719 51.1573 45.1506 51.3391 44.9975 51.4922C44.8444 51.6453 44.6626 51.7666 44.4624 51.8491C44.2622 51.9316 44.0477 51.9736 43.8312 51.9728C43.6147 51.9719 43.4006 51.9282 43.201 51.8442C43.0015 51.7602 42.8206 51.6375 42.6687 51.4833L37.6312 46.4451C37.4993 46.3133 37.3205 46.2392 37.134 46.2392C36.9476 46.2392 36.7687 46.3133 36.6369 46.4451C36.505 46.577 36.431 46.7558 36.431 46.9423C36.431 47.1288 36.505 47.3077 36.6369 47.4395L41.6744 52.4777C41.8292 52.6294 41.9524 52.8104 42.0369 53.0101C42.1214 53.2098 42.1654 53.4243 42.1665 53.6411C42.1676 53.8579 42.1257 54.0728 42.0432 54.2734C41.9608 54.4739 41.8394 54.6561 41.6861 54.8094C41.5328 54.9627 41.3506 55.0842 41.1501 55.1666C40.9496 55.2491 40.7347 55.291 40.5179 55.2899C40.3011 55.2889 40.0867 55.2448 39.887 55.1603C39.6873 55.0759 39.5064 54.9526 39.3546 54.7978L34.3169 49.7597C34.2516 49.6943 34.1741 49.6425 34.0888 49.6072C34.0035 49.5718 33.9121 49.5536 33.8198 49.5536C33.7274 49.5536 33.636 49.5718 33.5507 49.6071C33.4654 49.6424 33.3878 49.6942 33.3225 49.7595C33.2572 49.8248 33.2054 49.9023 33.1701 49.9876C33.1347 50.0729 33.1165 50.1643 33.1165 50.2567C33.1165 50.349 33.1347 50.4405 33.17 50.5258C33.2053 50.6111 33.2571 50.6887 33.3224 50.754L38.3599 55.7921C38.5142 55.944 38.6369 56.1249 38.7209 56.3245C38.805 56.524 38.8487 56.7382 38.8496 56.9547C38.8504 57.1712 38.8084 57.3858 38.726 57.586C38.6436 57.7862 38.5223 57.9681 38.3693 58.1212C38.2162 58.2744 38.0344 58.3957 37.8342 58.4782C37.6341 58.5607 37.4196 58.6027 37.2031 58.6019C36.9866 58.6011 36.7724 58.5575 36.5728 58.4735C36.3733 58.3895 36.1924 58.2669 36.0404 58.1126L34.9742 57.0463C35.2676 56.5857 35.4319 56.0547 35.4498 55.5088C35.4676 54.963 35.3385 54.4224 35.0759 53.9435C34.8132 53.4647 34.4267 53.0653 33.9568 52.787C33.4869 52.5088 32.9509 52.3619 32.4048 52.3619C32.3105 52.3619 32.2169 52.3666 32.1241 52.375C32.1325 52.2822 32.1372 52.1886 32.1372 52.0943C32.1372 51.2862 31.8162 50.5113 31.2448 49.9399C30.6735 49.3685 29.8986 49.0474 29.0907 49.0473C28.9964 49.0473 28.9027 49.052 28.8099 49.0605C28.8183 48.9677 28.823 48.8741 28.823 48.7797C28.823 47.9716 28.502 47.1967 27.9306 46.6253C27.3593 46.0539 26.5845 45.7329 25.7765 45.7328C25.6821 45.7328 25.5885 45.7375 25.4957 45.7459C25.5041 45.6531 25.5088 45.5595 25.5088 45.4651C25.5092 44.6752 25.2025 43.916 24.6534 43.3481C24.1043 42.7803 23.3559 42.4482 22.5665 42.4222C22.4525 41.7847 22.4105 41.1364 22.4412 40.4895L22.5506 40.3801L22.5516 40.3792L22.5519 40.3788L30.8697 32.0602C30.88 32.0499 30.889 32.0391 30.8984 32.0283C32.0008 32.6322 33.202 33.0349 34.4455 33.2175L30.1963 37.967C29.8243 38.3832 29.6256 38.9261 29.6411 39.4842C29.6566 40.0423 29.885 40.5733 30.2796 40.9683C31.0283 41.7154 32.0429 42.135 33.1005 42.135C34.1582 42.135 35.1727 41.7154 35.9215 40.9682L39.6718 37.2165L48.3028 45.8486C48.4556 46.0006 48.5768 46.1813 48.6593 46.3805C48.7418 46.5796 48.784 46.7931 48.7834 47.0086ZM49.0099 41.5354C48.5468 42.0835 48.0199 42.5742 47.4403 42.9972L40.2825 35.8386C40.2401 35.8056 40.2018 35.7675 40.1686 35.7251C40.1034 35.6598 40.0259 35.608 39.9406 35.5727C39.8553 35.5373 39.7639 35.5191 39.6715 35.5191C39.5792 35.5191 39.4878 35.5373 39.4025 35.5727C39.3172 35.608 39.2397 35.6598 39.1744 35.7251L34.9271 39.9739C34.4422 40.4577 33.7853 40.7293 33.1005 40.7293C32.4156 40.7293 31.7587 40.4577 31.2739 39.9739C31.1333 39.8332 31.052 39.644 31.0465 39.4451C31.041 39.2463 31.1118 39.0529 31.2443 38.9046L36.233 33.3286C37.9482 33.2937 39.6292 32.8427 41.1316 32.0145C41.2248 32.1354 41.3256 32.2502 41.4336 32.3582L49.4537 40.3793C49.5315 40.4571 49.6126 40.5305 49.6961 40.6001C49.4879 40.9264 49.2586 41.2388 49.0099 41.5354ZM53.4302 39.3853C53.2344 39.5812 53.002 39.7366 52.7461 39.8426C52.4903 39.9487 52.2161 40.0032 51.9392 40.0032C51.6623 40.0032 51.3881 39.9486 51.1322 39.8425C50.8764 39.7364 50.644 39.581 50.4483 39.3851L42.4279 31.3638C42.3918 31.3273 42.3571 31.2894 42.3238 31.2504C43.0462 30.717 43.6989 30.0952 44.2667 29.3995L53.7408 39.0747L53.4302 39.3853Z" fill="#3A67B1"/>
<rect x="0.5" y="0.5" width="71" height="71" rx="35.5" stroke="#D8E1EF"/>
</svg>
