<svg  viewBox="0 0 72 72" fill="none" xmlns="http://www.w3.org/2000/svg">
<path d="M60.2853 32.2146C60.4117 32.1267 60.4906 31.9856 60.4992 31.8319C60.5078 31.6782 60.4452 31.5291 60.3293 31.4277L59.327 30.5503C59.3119 30.5371 59.2959 30.5247 59.2793 30.5134L57.4729 29.2824C57.3889 29.2252 57.2896 29.195 57.188 29.1956L54.2975 29.2149L52.7477 27.5163C52.6105 27.366 52.3959 27.3138 52.205 27.3843L50.415 28.0456L49.0256 27.5601C48.9249 27.525 48.8156 27.5229 48.7136 27.5542L47.9993 27.7739L46.1714 24.8517C46.0873 24.7173 45.9445 24.6307 45.7864 24.6184L44.6937 24.5333L43.8156 21.4054C43.7619 21.214 43.5999 21.0727 43.403 21.0453L39.5126 20.5048C39.3435 20.4813 39.1741 20.5457 39.0634 20.6756L38.4565 21.3872L35.4411 21.3525C35.2818 21.3507 35.1311 21.4249 35.0354 21.5524L33.9902 22.9456C33.9318 23.0234 33.8974 23.1165 33.8912 23.2135L33.8355 24.0784L33.7257 23.8272C33.6348 23.619 33.4149 23.4983 33.1904 23.5333L31.4573 23.804L31.0862 23.1391C30.9911 22.9687 30.8055 22.8692 30.6109 22.8843L26.9255 23.1707L21.742 21.1456C21.6287 21.1013 21.5031 21.0999 21.3888 21.1416L19.321 21.8954C19.2768 21.9115 19.235 21.9338 19.197 21.9617L17.4643 23.23C17.2947 23.3541 17.2208 23.571 17.2794 23.7728L18.0082 26.284L14.6993 28.6153C14.5483 28.7216 14.4683 28.9026 14.4911 29.0859L14.8076 31.6245L13.6805 32.7607L11.852 33.3273C11.7083 33.3718 11.5923 33.4786 11.5362 33.6182C11.48 33.7577 11.4896 33.9151 11.5624 34.0467L12.61 35.9424C12.6832 36.0749 12.8126 36.1671 12.9617 36.1931L16.9489 36.8884L17.7349 37.7132C17.8543 37.8385 18.03 37.8931 18.1993 37.8576L21.7761 37.109C21.9186 37.0792 22.041 36.9887 22.1114 36.8613L22.4427 36.2612L25.4371 35.6055L28.7344 37.4256L29.2856 39.0432C29.3194 39.1423 29.3834 39.2283 29.4687 39.2891L30.438 39.9798L30.3866 41.1386C30.3824 41.233 30.405 41.3266 30.4519 41.4087L31.0719 42.4944L29.6301 42.8639C29.5012 42.897 29.3907 42.9801 29.3232 43.0949L28.596 44.332L26.5655 45.9928C26.4499 46.0873 26.3826 46.2286 26.3821 46.378C26.3815 46.5274 26.4478 46.6691 26.5627 46.7645L27.9807 47.9415C28.1343 48.0691 28.3492 48.093 28.5271 48.0023L32.5902 45.9312C32.6486 45.9014 32.7005 45.8605 32.7431 45.8108L34.6702 43.5581L35.6419 42.9867L36.827 42.8324C36.7155 43.0212 36.7398 43.2633 36.8914 43.4266L38.1549 44.7864C38.249 44.8877 38.3808 44.9455 38.5191 44.9461L42.0602 44.9611L42.0678 44.992L39.0346 46.5417C38.8637 46.629 38.7579 46.8063 38.7622 46.9982C38.7665 47.19 38.8802 47.3624 39.0548 47.4419L41.8029 48.6937L41.8172 49.1702L41.3204 50.1501C41.2017 50.3841 41.2842 50.6701 41.5093 50.8051L42.5499 51.4289C42.6743 51.5034 42.825 51.5203 42.9628 51.4751L44.7126 50.9012C44.7471 50.8899 44.7801 50.8749 44.8113 50.8564L48.4878 48.6822L50.7121 48.7757C50.948 48.7856 51.1587 48.6292 51.2174 48.4005L51.5719 47.0198C51.609 46.8752 51.5796 46.7216 51.4917 46.601C51.4038 46.4804 51.2666 46.4053 51.1176 46.3963L49.8089 46.3175C49.7411 46.3134 49.6731 46.3232 49.6092 46.3462L48.0344 46.9142L46.8188 45.5667L46.8085 45.5556L46.1238 44.8413L47.1992 44.3887C47.3167 44.3861 47.4322 44.3421 47.5232 44.2599L49.1838 42.7605L53.7124 40.9542L55.4286 40.8108C55.6643 40.7911 55.8539 40.609 55.8832 40.3743L56.0935 38.6854L57.6022 37.8016L59.4974 37.7431C59.7154 37.7364 59.9039 37.5892 59.9632 37.3793L60.4493 35.6577C60.5018 35.4718 60.4425 35.2723 60.2971 35.1452L58.4231 33.5083L60.2853 32.2146Z" stroke="#3A67B1" stroke-linejoin="round"/>
<rect x="0.5" y="0.5" width="71" height="71" rx="35.5" stroke="#D8E1EF"/>
</svg>
