<svg width="32" height="32" viewBox="0 0 32 32" fill="none" xmlns="http://www.w3.org/2000/svg">
<path d="M16 15.9666C14.5334 15.9666 13.3334 15.4999 12.4 14.5666C11.4667 13.6332 11 12.4332 11 10.9666C11 9.49989 11.4667 8.29989 12.4 7.36655C13.3334 6.43322 14.5334 5.96655 16 5.96655C17.4667 5.96655 18.6667 6.43322 19.6 7.36655C20.5334 8.29989 21 9.49989 21 10.9666C21 12.4332 20.5334 13.6332 19.6 14.5666C18.6667 15.4999 17.4667 15.9666 16 15.9666ZM5.33337 26.6666V23.5332C5.33337 22.6888 5.54449 21.9666 5.96671 21.3666C6.38893 20.7666 6.93337 20.311 7.60004 19.9999C9.08893 19.3332 10.5167 18.8332 11.8834 18.4999C13.25 18.1666 14.6223 17.9999 16 17.9999C17.3778 17.9999 18.7445 18.1721 20.1 18.5166C21.4556 18.861 22.8769 19.3576 24.3641 20.0064C25.0597 20.3203 25.6173 20.7754 26.0371 21.3719C26.4568 21.9683 26.6667 22.6888 26.6667 23.5332V26.6666H5.33337ZM7.33337 24.6666H24.6667V23.5332C24.6667 23.1777 24.5612 22.8388 24.35 22.5166C24.1389 22.1943 23.8778 21.9554 23.5667 21.7999C22.1445 21.111 20.8445 20.6388 19.6667 20.3832C18.4889 20.1277 17.2667 19.9999 16 19.9999C14.7334 19.9999 13.5 20.1277 12.3 20.3832C11.1 20.6388 9.80004 21.111 8.40004 21.7999C8.08893 21.9554 7.83337 22.1943 7.63337 22.5166C7.43337 22.8388 7.33337 23.1777 7.33337 23.5332V24.6666ZM16 13.9666C16.8667 13.9666 17.5834 13.6832 18.15 13.1166C18.7167 12.5499 19 11.8332 19 10.9666C19 10.0999 18.7167 9.38322 18.15 8.81655C17.5834 8.24989 16.8667 7.96655 16 7.96655C15.1334 7.96655 14.4167 8.24989 13.85 8.81655C13.2834 9.38322 13 10.0999 13 10.9666C13 11.8332 13.2834 12.5499 13.85 13.1166C14.4167 13.6832 15.1334 13.9666 16 13.9666Z" fill="#74777D"/>
</svg>
